solid modele-poigne
facet normal 0.0 0.0 -1.0
  outer loop
    vertex 18.0 50.0 0.0
    vertex 15.0 25.0 0.0
    vertex 15.0 50.0 0.0
  endloop
endfacet
facet normal 0.0 0.0 -1.0
  outer loop
    vertex 75.0 50.0 0.0
    vertex 72.0 25.0 0.0
    vertex 72.0 50.0 0.0
  endloop
endfacet
facet normal 0.0 0.0 -1.0
  outer loop
    vertex 0.10693923282737 14.131577402750642 0.0
    vertex 0.10693923282737 10.868422597249351 0.0
    vertex 0.0 12.499999999999998 0.0
  endloop
endfacet
facet normal 0.0 0.0 -1.0
  outer loop
    vertex 0.10693923282737 10.868422597249351 0.0
    vertex 0.10693923282737 14.131577402750642 0.0
    vertex 0.4259271713866455 15.735238063781509 0.0
  endloop
endfacet
facet normal 0.0 0.0 -1.0
  outer loop
    vertex 0.10693923282737 10.868422597249351 0.0
    vertex 0.4259271713866455 15.735238063781509 0.0
    vertex 0.42592717138664693 9.264761936218486 0.0
  endloop
endfacet
facet normal 0.0 0.0 -1.0
  outer loop
    vertex 0.42592717138664693 9.264761936218486 0.0
    vertex 0.4259271713866455 15.735238063781509 0.0
    vertex 0.9515058436089153 17.28354290456362 0.0
  endloop
endfacet
facet normal 0.0 0.0 -1.0
  outer loop
    vertex 0.42592717138664693 9.264761936218486 0.0
    vertex 0.9515058436089153 17.28354290456362 0.0
    vertex 0.9515058436089168 7.716457095436374 0.0
  endloop
endfacet
facet normal 0.0 0.0 -1.0
  outer loop
    vertex 0.9515058436089168 7.716457095436374 0.0
    vertex 0.9515058436089153 17.28354290456362 0.0
    vertex 1.674682452694517 18.75 0.0
  endloop
endfacet
facet normal 0.0 0.0 -1.0
  outer loop
    vertex 0.9515058436089168 7.716457095436374 0.0
    vertex 1.674682452694517 18.75 0.0
    vertex 1.674682452694517 6.249999999999997 0.0
  endloop
endfacet
facet normal 0.0 0.0 -1.0
  outer loop
    vertex 1.674682452694517 6.249999999999997 0.0
    vertex 1.674682452694517 18.75 0.0
    vertex 2.583083246359562 20.10951786260901 0.0
  endloop
endfacet
facet normal 0.0 0.0 -1.0
  outer loop
    vertex 1.674682452694517 6.249999999999997 0.0
    vertex 2.583083246359562 20.10951786260901 0.0
    vertex 2.5830832463595605 4.890482137390992 0.0
  endloop
endfacet
facet normal 0.0 0.0 -1.0
  outer loop
    vertex 2.5830832463595605 4.890482137390992 0.0
    vertex 2.583083246359562 20.10951786260901 0.0
    vertex 3.6611652351681547 3.661165235168156 0.0
  endloop
endfacet
facet normal 0.0 0.0 -1.0
  outer loop
    vertex 3.6611652351681547 3.661165235168156 0.0
    vertex 2.583083246359562 20.10951786260901 0.0
    vertex 3.661165235168156 21.338834764831844 0.0
  endloop
endfacet
facet normal 0.0 0.0 -1.0
  outer loop
    vertex 3.6611652351681547 3.661165235168156 0.0
    vertex 3.661165235168156 21.338834764831844 0.0
    vertex 4.890482137390989 2.583083246359562 0.0
  endloop
endfacet
facet normal 0.0 0.0 -1.0
  outer loop
    vertex 4.890482137390989 2.583083246359562 0.0
    vertex 3.661165235168156 21.338834764831844 0.0
    vertex 4.890482137390993 22.41691675364044 0.0
  endloop
endfacet
facet normal 0.0 0.0 -1.0
  outer loop
    vertex 4.890482137390989 2.583083246359562 0.0
    vertex 4.890482137390993 22.41691675364044 0.0
    vertex 6.249999999999996 1.6746824526945185 0.0
  endloop
endfacet
facet normal 0.0 0.0 -1.0
  outer loop
    vertex 6.249999999999996 1.6746824526945185 0.0
    vertex 4.890482137390993 22.41691675364044 0.0
    vertex 6.250000000000001 23.325317547305485 0.0
  endloop
endfacet
facet normal 0.0 0.0 -1.0
  outer loop
    vertex 6.249999999999996 1.6746824526945185 0.0
    vertex 6.250000000000001 23.325317547305485 0.0
    vertex 7.716457095436372 0.9515058436089181 0.0
  endloop
endfacet
facet normal 0.0 0.0 -1.0
  outer loop
    vertex 7.716457095436372 0.9515058436089181 0.0
    vertex 6.250000000000001 23.325317547305485 0.0
    vertex 7.716457095436378 24.048494156391087 0.0
  endloop
endfacet
facet normal 0.0 0.0 -1.0
  outer loop
    vertex 7.716457095436372 0.9515058436089181 0.0
    vertex 7.716457095436378 24.048494156391087 0.0
    vertex 9.264761936218482 0.4259271713866483 0.0
  endloop
endfacet
facet normal 0.0 0.0 -1.0
  outer loop
    vertex 9.264761936218482 0.4259271713866483 0.0
    vertex 7.716457095436378 24.048494156391087 0.0
    vertex 9.264761936218491 24.574072828613357 0.0
  endloop
endfacet
facet normal 0.0 0.0 -1.0
  outer loop
    vertex 9.264761936218482 0.4259271713866483 0.0
    vertex 9.264761936218491 24.574072828613357 0.0
    vertex 10.868422597249344 0.1069392328273714 0.0
  endloop
endfacet
facet normal 0.0 0.0 -1.0
  outer loop
    vertex 10.868422597249344 0.1069392328273714 0.0
    vertex 9.264761936218491 24.574072828613357 0.0
    vertex 10.868422597249355 24.893060767172628 0.0
  endloop
endfacet
facet normal 0.0 0.0 -1.0
  outer loop
    vertex 10.868422597249344 0.1069392328273714 0.0
    vertex 10.868422597249355 24.893060767172628 0.0
    vertex 12.499999999999988 0.0 0.0
  endloop
endfacet
facet normal 0.0 0.0 -1.0
  outer loop
    vertex 12.499999999999988 0.0 0.0
    vertex 10.868422597249355 24.893060767172628 0.0
    vertex 12.5 25.0 0.0
  endloop
endfacet
facet normal 0.0 0.0 -1.0
  outer loop
    vertex 12.499999999999988 0.0 0.0
    vertex 12.5 25.0 0.0
    vertex 77.50000000000001 0.0 0.0
  endloop
endfacet
facet normal 0.0 0.0 -1.0
  outer loop
    vertex 77.50000000000001 0.0 0.0
    vertex 12.5 25.0 0.0
    vertex 15.0 25.0 0.0
  endloop
endfacet
facet normal 0.0 0.0 -1.0
  outer loop
    vertex 77.50000000000001 0.0 0.0
    vertex 15.0 25.0 0.0
    vertex 18.0 25.0 0.0
  endloop
endfacet
facet normal 0.0 0.0 -1.0
  outer loop
    vertex 18.0 25.0 0.0
    vertex 15.0 25.0 0.0
    vertex 18.0 50.0 0.0
  endloop
endfacet
facet normal 0.0 0.0 -1.0
  outer loop
    vertex 77.50000000000001 0.0 0.0
    vertex 18.0 25.0 0.0
    vertex 72.0 25.0 0.0
  endloop
endfacet
facet normal 0.0 0.0 -1.0
  outer loop
    vertex 77.50000000000001 0.0 0.0
    vertex 72.0 25.0 0.0
    vertex 75.0 25.0 0.0
  endloop
endfacet
facet normal 0.0 0.0 -1.0
  outer loop
    vertex 75.0 25.0 0.0
    vertex 72.0 25.0 0.0
    vertex 75.0 50.0 0.0
  endloop
endfacet
facet normal 0.0 0.0 -1.0
  outer loop
    vertex 77.50000000000001 0.0 0.0
    vertex 75.0 25.0 0.0
    vertex 77.5 25.0 0.0
  endloop
endfacet
facet normal 0.0 0.0 -1.0
  outer loop
    vertex 77.50000000000001 0.0 0.0
    vertex 77.5 25.0 0.0
    vertex 79.13157740275065 24.893060767172628 0.0
  endloop
endfacet
facet normal 0.0 0.0 -1.0
  outer loop
    vertex 77.50000000000001 0.0 0.0
    vertex 79.13157740275065 24.893060767172628 0.0
    vertex 79.13157740275065 0.1069392328273714 0.0
  endloop
endfacet
facet normal 0.0 0.0 -1.0
  outer loop
    vertex 79.13157740275065 0.1069392328273714 0.0
    vertex 79.13157740275065 24.893060767172628 0.0
    vertex 80.73523806378151 24.574072828613357 0.0
  endloop
endfacet
facet normal 0.0 0.0 -1.0
  outer loop
    vertex 79.13157740275065 0.1069392328273714 0.0
    vertex 80.73523806378151 24.574072828613357 0.0
    vertex 80.73523806378152 0.4259271713866483 0.0
  endloop
endfacet
facet normal 0.0 0.0 -1.0
  outer loop
    vertex 80.73523806378152 0.4259271713866483 0.0
    vertex 80.73523806378151 24.574072828613357 0.0
    vertex 82.28354290456362 24.048494156391087 0.0
  endloop
endfacet
facet normal 0.0 0.0 -1.0
  outer loop
    vertex 80.73523806378152 0.4259271713866483 0.0
    vertex 82.28354290456362 24.048494156391087 0.0
    vertex 82.28354290456363 0.9515058436089181 0.0
  endloop
endfacet
facet normal 0.0 0.0 -1.0
  outer loop
    vertex 82.28354290456363 0.9515058436089181 0.0
    vertex 82.28354290456362 24.048494156391087 0.0
    vertex 83.75 23.325317547305485 0.0
  endloop
endfacet
facet normal 0.0 0.0 -1.0
  outer loop
    vertex 82.28354290456363 0.9515058436089181 0.0
    vertex 83.75 23.325317547305485 0.0
    vertex 83.75 1.6746824526945185 0.0
  endloop
endfacet
facet normal 0.0 0.0 -1.0
  outer loop
    vertex 83.75 1.6746824526945185 0.0
    vertex 83.75 23.325317547305485 0.0
    vertex 85.10951786260901 22.41691675364044 0.0
  endloop
endfacet
facet normal 0.0 0.0 -1.0
  outer loop
    vertex 83.75 1.6746824526945185 0.0
    vertex 85.10951786260901 22.41691675364044 0.0
    vertex 85.10951786260901 2.583083246359562 0.0
  endloop
endfacet
facet normal 0.0 0.0 -1.0
  outer loop
    vertex 85.10951786260901 2.583083246359562 0.0
    vertex 85.10951786260901 22.41691675364044 0.0
    vertex 86.33883476483184 21.338834764831844 0.0
  endloop
endfacet
facet normal 0.0 0.0 -1.0
  outer loop
    vertex 85.10951786260901 2.583083246359562 0.0
    vertex 86.33883476483184 21.338834764831844 0.0
    vertex 86.33883476483184 3.661165235168156 0.0
  endloop
endfacet
facet normal 0.0 0.0 -1.0
  outer loop
    vertex 86.33883476483184 3.661165235168156 0.0
    vertex 86.33883476483184 21.338834764831844 0.0
    vertex 87.41691675364044 20.10951786260901 0.0
  endloop
endfacet
facet normal 0.0 0.0 -1.0
  outer loop
    vertex 86.33883476483184 3.661165235168156 0.0
    vertex 87.41691675364044 20.10951786260901 0.0
    vertex 87.41691675364044 4.890482137390992 0.0
  endloop
endfacet
facet normal 0.0 0.0 -1.0
  outer loop
    vertex 87.41691675364044 4.890482137390992 0.0
    vertex 87.41691675364044 20.10951786260901 0.0
    vertex 88.32531754730549 18.75 0.0
  endloop
endfacet
facet normal 0.0 0.0 -1.0
  outer loop
    vertex 87.41691675364044 4.890482137390992 0.0
    vertex 88.32531754730549 18.75 0.0
    vertex 88.32531754730549 6.249999999999997 0.0
  endloop
endfacet
facet normal 0.0 0.0 -1.0
  outer loop
    vertex 88.32531754730549 6.249999999999997 0.0
    vertex 88.32531754730549 18.75 0.0
    vertex 89.04849415639109 17.28354290456362 0.0
  endloop
endfacet
facet normal 0.0 0.0 -1.0
  outer loop
    vertex 88.32531754730549 6.249999999999997 0.0
    vertex 89.04849415639109 17.28354290456362 0.0
    vertex 89.04849415639109 7.716457095436374 0.0
  endloop
endfacet
facet normal 0.0 0.0 -1.0
  outer loop
    vertex 89.04849415639109 7.716457095436374 0.0
    vertex 89.04849415639109 17.28354290456362 0.0
    vertex 89.57407282861335 15.735238063781509 0.0
  endloop
endfacet
facet normal 0.0 0.0 -1.0
  outer loop
    vertex 89.04849415639109 7.716457095436374 0.0
    vertex 89.57407282861335 15.735238063781509 0.0
    vertex 89.57407282861335 9.264761936218486 0.0
  endloop
endfacet
facet normal 0.0 0.0 -1.0
  outer loop
    vertex 89.57407282861335 9.264761936218486 0.0
    vertex 89.57407282861335 15.735238063781509 0.0
    vertex 89.89306076717264 14.131577402750642 0.0
  endloop
endfacet
facet normal 0.0 0.0 -1.0
  outer loop
    vertex 89.57407282861335 9.264761936218486 0.0
    vertex 89.89306076717264 14.131577402750642 0.0
    vertex 89.89306076717264 10.868422597249351 0.0
  endloop
endfacet
facet normal 0.0 0.0 -1.0
  outer loop
    vertex 89.89306076717264 10.868422597249351 0.0
    vertex 89.89306076717264 14.131577402750642 0.0
    vertex 90.0 12.499999999999998 0.0
  endloop
endfacet
facet normal 0.0 1.0 0.0
  outer loop
    vertex 12.5 25.0 3.0
    vertex 15.0 25.0 0.0
    vertex 12.5 25.0 0.0
  endloop
endfacet
facet normal 0.0 1.0 0.0
  outer loop
    vertex 15.0 25.0 0.0
    vertex 12.5 25.0 3.0
    vertex 15.0 25.0 3.0
  endloop
endfacet
facet normal -1.0 0.0 0.0
  outer loop
    vertex 15.0 50.0 18.0
    vertex 15.0 45.0 3.0
    vertex 15.0 45.0 18.0
  endloop
endfacet
facet normal -1.0 0.0 0.0
  outer loop
    vertex 15.0 45.0 3.0
    vertex 15.0 25.0 0.0
    vertex 15.0 25.0 3.0
  endloop
endfacet
facet normal -1.0 0.0 0.0
  outer loop
    vertex 15.0 25.0 0.0
    vertex 15.0 45.0 3.0
    vertex 15.0 50.0 0.0
  endloop
endfacet
facet normal -1.0 0.0 0.0
  outer loop
    vertex 15.0 50.0 0.0
    vertex 15.0 45.0 3.0
    vertex 15.0 50.0 18.0
  endloop
endfacet
facet normal 0.0 1.0 0.0
  outer loop
    vertex 15.0 50.0 18.0
    vertex 18.0 50.0 0.0
    vertex 15.0 50.0 0.0
  endloop
endfacet
facet normal 0.0 1.0 0.0
  outer loop
    vertex 18.0 50.0 0.0
    vertex 15.0 50.0 18.0
    vertex 18.0 50.0 18.0
  endloop
endfacet
facet normal 1.0 0.0 0.0
  outer loop
    vertex 18.0 50.0 0.0
    vertex 18.0 25.0 3.0
    vertex 18.0 25.0 0.0
  endloop
endfacet
facet normal 1.0 0.0 0.0
  outer loop
    vertex 18.0 25.0 3.0
    vertex 18.0 50.0 0.0
    vertex 18.0 45.0 3.0
  endloop
endfacet
facet normal 1.0 0.0 0.0
  outer loop
    vertex 18.0 45.0 3.0
    vertex 18.0 50.0 0.0
    vertex 18.0 45.0 18.0
  endloop
endfacet
facet normal 1.0 0.0 0.0
  outer loop
    vertex 18.0 45.0 18.0
    vertex 18.0 50.0 0.0
    vertex 18.0 50.0 18.0
  endloop
endfacet
facet normal 0.0 1.0 0.0
  outer loop
    vertex 18.0 25.0 3.0
    vertex 72.0 25.0 0.0
    vertex 18.0 25.0 0.0
  endloop
endfacet
facet normal 0.0 1.0 0.0
  outer loop
    vertex 72.0 25.0 0.0
    vertex 18.0 25.0 3.0
    vertex 72.0 25.0 3.0
  endloop
endfacet
facet normal -1.0 0.0 0.0
  outer loop
    vertex 72.0 50.0 18.0
    vertex 72.0 45.0 3.0
    vertex 72.0 45.0 18.0
  endloop
endfacet
facet normal -1.0 0.0 0.0
  outer loop
    vertex 72.0 45.0 3.0
    vertex 72.0 25.0 0.0
    vertex 72.0 25.0 3.0
  endloop
endfacet
facet normal -1.0 0.0 0.0
  outer loop
    vertex 72.0 25.0 0.0
    vertex 72.0 45.0 3.0
    vertex 72.0 50.0 0.0
  endloop
endfacet
facet normal -1.0 0.0 0.0
  outer loop
    vertex 72.0 50.0 0.0
    vertex 72.0 45.0 3.0
    vertex 72.0 50.0 18.0
  endloop
endfacet
facet normal 0.0 1.0 0.0
  outer loop
    vertex 72.0 50.0 18.0
    vertex 75.0 50.0 0.0
    vertex 72.0 50.0 0.0
  endloop
endfacet
facet normal 0.0 1.0 0.0
  outer loop
    vertex 75.0 50.0 0.0
    vertex 72.0 50.0 18.0
    vertex 75.0 50.0 18.0
  endloop
endfacet
facet normal 1.0 0.0 0.0
  outer loop
    vertex 75.0 50.0 0.0
    vertex 75.0 25.0 3.0
    vertex 75.0 25.0 0.0
  endloop
endfacet
facet normal 1.0 0.0 0.0
  outer loop
    vertex 75.0 25.0 3.0
    vertex 75.0 50.0 0.0
    vertex 75.0 45.0 3.0
  endloop
endfacet
facet normal 1.0 0.0 0.0
  outer loop
    vertex 75.0 45.0 3.0
    vertex 75.0 50.0 0.0
    vertex 75.0 45.0 18.0
  endloop
endfacet
facet normal 1.0 0.0 0.0
  outer loop
    vertex 75.0 45.0 18.0
    vertex 75.0 50.0 0.0
    vertex 75.0 50.0 18.0
  endloop
endfacet
facet normal 0.0 1.0 0.0
  outer loop
    vertex 75.0 25.0 3.0
    vertex 77.5 25.0 0.0
    vertex 75.0 25.0 0.0
  endloop
endfacet
facet normal 0.0 1.0 0.0
  outer loop
    vertex 77.5 25.0 0.0
    vertex 75.0 25.0 3.0
    vertex 77.5 25.0 3.0
  endloop
endfacet
facet normal 0.06540312923014423 0.9978589232386036 0.0
  outer loop
    vertex 77.5 25.0 3.0
    vertex 79.13157740275065 24.893060767172628 0.0
    vertex 77.5 25.0 0.0
  endloop
endfacet
facet normal 0.06540312923014423 0.9978589232386036 0.0
  outer loop
    vertex 79.13157740275065 24.893060767172628 0.0
    vertex 77.5 25.0 3.0
    vertex 79.13157740275065 24.893060767172628 3.0
  endloop
endfacet
facet normal 0.19509032201612572 0.980785280403231 0.0
  outer loop
    vertex 79.13157740275065 24.893060767172628 3.0
    vertex 80.73523806378151 24.574072828613357 0.0
    vertex 79.13157740275065 24.893060767172628 0.0
  endloop
endfacet
facet normal 0.19509032201612572 0.980785280403231 0.0
  outer loop
    vertex 80.73523806378151 24.574072828613357 0.0
    vertex 79.13157740275065 24.893060767172628 3.0
    vertex 80.73523806378151 24.574072828613357 3.0
  endloop
endfacet
facet normal 0.3214394653031625 0.9469301294951054 0.0
  outer loop
    vertex 80.73523806378151 24.574072828613357 3.0
    vertex 82.28354290456362 24.048494156391087 0.0
    vertex 80.73523806378151 24.574072828613357 0.0
  endloop
endfacet
facet normal 0.3214394653031625 0.9469301294951054 0.0
  outer loop
    vertex 82.28354290456362 24.048494156391087 0.0
    vertex 80.73523806378151 24.574072828613357 3.0
    vertex 82.28354290456362 24.048494156391087 3.0
  endloop
endfacet
facet normal 0.4422886902190002 0.896872741532689 0.0
  outer loop
    vertex 82.28354290456362 24.048494156391087 3.0
    vertex 83.75 23.325317547305485 0.0
    vertex 82.28354290456362 24.048494156391087 0.0
  endloop
endfacet
facet normal 0.4422886902190002 0.896872741532689 0.0
  outer loop
    vertex 83.75 23.325317547305485 0.0
    vertex 82.28354290456362 24.048494156391087 3.0
    vertex 83.75 23.325317547305485 3.0
  endloop
endfacet
facet normal 0.5555702330196026 0.831469612302545 0.0
  outer loop
    vertex 83.75 23.325317547305485 3.0
    vertex 85.10951786260901 22.41691675364044 0.0
    vertex 83.75 23.325317547305485 0.0
  endloop
endfacet
facet normal 0.5555702330196026 0.831469612302545 0.0
  outer loop
    vertex 85.10951786260901 22.41691675364044 0.0
    vertex 83.75 23.325317547305485 3.0
    vertex 85.10951786260901 22.41691675364044 3.0
  endloop
endfacet
facet normal 0.6593458151000681 0.751839807478978 0.0
  outer loop
    vertex 85.10951786260901 22.41691675364044 3.0
    vertex 86.33883476483184 21.338834764831844 0.0
    vertex 85.10951786260901 22.41691675364044 0.0
  endloop
endfacet
facet normal 0.6593458151000681 0.751839807478978 0.0
  outer loop
    vertex 86.33883476483184 21.338834764831844 0.0
    vertex 85.10951786260901 22.41691675364044 3.0
    vertex 86.33883476483184 21.338834764831844 3.0
  endloop
endfacet
facet normal 0.7518398074789789 0.6593458151000671 0.0
  outer loop
    vertex 86.33883476483184 21.338834764831844 0.0
    vertex 87.41691675364044 20.10951786260901 3.0
    vertex 87.41691675364044 20.10951786260901 0.0
  endloop
endfacet
facet normal 0.7518398074789789 0.6593458151000671 0.0
  outer loop
    vertex 87.41691675364044 20.10951786260901 3.0
    vertex 86.33883476483184 21.338834764831844 0.0
    vertex 86.33883476483184 21.338834764831844 3.0
  endloop
endfacet
facet normal 0.8314696123025431 0.5555702330196054 0.0
  outer loop
    vertex 87.41691675364044 20.10951786260901 0.0
    vertex 88.32531754730549 18.75 3.0
    vertex 88.32531754730549 18.75 0.0
  endloop
endfacet
facet normal 0.8314696123025431 0.5555702330196054 0.0
  outer loop
    vertex 88.32531754730549 18.75 3.0
    vertex 87.41691675364044 20.10951786260901 0.0
    vertex 87.41691675364044 20.10951786260901 3.0
  endloop
endfacet
facet normal 0.8968727415326889 0.4422886902190001 0.0
  outer loop
    vertex 88.32531754730549 18.75 0.0
    vertex 89.04849415639109 17.28354290456362 3.0
    vertex 89.04849415639109 17.28354290456362 0.0
  endloop
endfacet
facet normal 0.8968727415326889 0.4422886902190001 0.0
  outer loop
    vertex 89.04849415639109 17.28354290456362 3.0
    vertex 88.32531754730549 18.75 0.0
    vertex 88.32531754730549 18.75 3.0
  endloop
endfacet
facet normal 0.9469301294951066 0.3214394653031588 0.0
  outer loop
    vertex 89.04849415639109 17.28354290456362 0.0
    vertex 89.57407282861335 15.735238063781509 3.0
    vertex 89.57407282861335 15.735238063781509 0.0
  endloop
endfacet
facet normal 0.9469301294951066 0.3214394653031588 0.0
  outer loop
    vertex 89.57407282861335 15.735238063781509 3.0
    vertex 89.04849415639109 17.28354290456362 0.0
    vertex 89.04849415639109 17.28354290456362 3.0
  endloop
endfacet
facet normal 0.9807852804032297 0.19509032201613236 0.0
  outer loop
    vertex 89.57407282861335 15.735238063781509 0.0
    vertex 89.89306076717264 14.131577402750642 3.0
    vertex 89.89306076717264 14.131577402750642 0.0
  endloop
endfacet
facet normal 0.9807852804032297 0.19509032201613236 0.0
  outer loop
    vertex 89.89306076717264 14.131577402750642 3.0
    vertex 89.57407282861335 15.735238063781509 0.0
    vertex 89.57407282861335 15.735238063781509 3.0
  endloop
endfacet
facet normal 0.9978589232386037 0.06540312923014062 0.0
  outer loop
    vertex 89.89306076717264 14.131577402750642 0.0
    vertex 90.0 12.499999999999998 3.0
    vertex 90.0 12.499999999999998 0.0
  endloop
endfacet
facet normal 0.9978589232386037 0.06540312923014062 0.0
  outer loop
    vertex 90.0 12.499999999999998 3.0
    vertex 89.89306076717264 14.131577402750642 0.0
    vertex 89.89306076717264 14.131577402750642 3.0
  endloop
endfacet
facet normal 0.9978589232386037 -0.06540312923014051 0.0
  outer loop
    vertex 90.0 12.499999999999998 0.0
    vertex 89.89306076717264 10.868422597249351 3.0
    vertex 89.89306076717264 10.868422597249351 0.0
  endloop
endfacet
facet normal 0.9978589232386037 -0.06540312923014051 0.0
  outer loop
    vertex 89.89306076717264 10.868422597249351 3.0
    vertex 90.0 12.499999999999998 0.0
    vertex 90.0 12.499999999999998 3.0
  endloop
endfacet
facet normal 0.9807852804032297 -0.19509032201613255 0.0
  outer loop
    vertex 89.89306076717264 10.868422597249351 0.0
    vertex 89.57407282861335 9.264761936218486 3.0
    vertex 89.57407282861335 9.264761936218486 0.0
  endloop
endfacet
facet normal 0.9807852804032297 -0.19509032201613255 0.0
  outer loop
    vertex 89.57407282861335 9.264761936218486 3.0
    vertex 89.89306076717264 10.868422597249351 0.0
    vertex 89.89306076717264 10.868422597249351 3.0
  endloop
endfacet
facet normal 0.9469301294951066 -0.3214394653031588 0.0
  outer loop
    vertex 89.57407282861335 9.264761936218486 0.0
    vertex 89.04849415639109 7.716457095436374 3.0
    vertex 89.04849415639109 7.716457095436374 0.0
  endloop
endfacet
facet normal 0.9469301294951066 -0.3214394653031588 0.0
  outer loop
    vertex 89.04849415639109 7.716457095436374 3.0
    vertex 89.57407282861335 9.264761936218486 0.0
    vertex 89.57407282861335 9.264761936218486 3.0
  endloop
endfacet
facet normal 0.8968727415326889 -0.4422886902190005 0.0
  outer loop
    vertex 89.04849415639109 7.716457095436374 0.0
    vertex 88.32531754730549 6.249999999999997 3.0
    vertex 88.32531754730549 6.249999999999997 0.0
  endloop
endfacet
facet normal 0.8968727415326889 -0.4422886902190005 0.0
  outer loop
    vertex 88.32531754730549 6.249999999999997 3.0
    vertex 89.04849415639109 7.716457095436374 0.0
    vertex 89.04849415639109 7.716457095436374 3.0
  endloop
endfacet
facet normal 0.8314696123025423 -0.5555702330196066 0.0
  outer loop
    vertex 88.32531754730549 6.249999999999997 0.0
    vertex 87.41691675364044 4.890482137390992 3.0
    vertex 87.41691675364044 4.890482137390992 0.0
  endloop
endfacet
facet normal 0.8314696123025423 -0.5555702330196066 0.0
  outer loop
    vertex 87.41691675364044 4.890482137390992 3.0
    vertex 88.32531754730549 6.249999999999997 0.0
    vertex 88.32531754730549 6.249999999999997 3.0
  endloop
endfacet
facet normal 0.7518398074789787 -0.6593458151000675 0.0
  outer loop
    vertex 87.41691675364044 4.890482137390992 0.0
    vertex 86.33883476483184 3.661165235168156 3.0
    vertex 86.33883476483184 3.661165235168156 0.0
  endloop
endfacet
facet normal 0.7518398074789787 -0.6593458151000675 0.0
  outer loop
    vertex 86.33883476483184 3.661165235168156 3.0
    vertex 87.41691675364044 4.890482137390992 0.0
    vertex 87.41691675364044 4.890482137390992 3.0
  endloop
endfacet
facet normal 0.6593458151000681 -0.751839807478978 0.0
  outer loop
    vertex 86.33883476483184 3.661165235168156 3.0
    vertex 85.10951786260901 2.583083246359562 0.0
    vertex 86.33883476483184 3.661165235168156 0.0
  endloop
endfacet
facet normal 0.6593458151000681 -0.751839807478978 0.0
  outer loop
    vertex 85.10951786260901 2.583083246359562 0.0
    vertex 86.33883476483184 3.661165235168156 3.0
    vertex 85.10951786260901 2.583083246359562 3.0
  endloop
endfacet
facet normal 0.5555702330196026 -0.831469612302545 0.0
  outer loop
    vertex 85.10951786260901 2.583083246359562 3.0
    vertex 83.75 1.6746824526945185 0.0
    vertex 85.10951786260901 2.583083246359562 0.0
  endloop
endfacet
facet normal 0.5555702330196026 -0.831469612302545 0.0
  outer loop
    vertex 83.75 1.6746824526945185 0.0
    vertex 85.10951786260901 2.583083246359562 3.0
    vertex 83.75 1.6746824526945185 3.0
  endloop
endfacet
facet normal 0.44228869021900213 -0.8968727415326879 0.0
  outer loop
    vertex 83.75 1.6746824526945185 3.0
    vertex 82.28354290456363 0.9515058436089181 0.0
    vertex 83.75 1.6746824526945185 0.0
  endloop
endfacet
facet normal 0.44228869021900213 -0.8968727415326879 0.0
  outer loop
    vertex 82.28354290456363 0.9515058436089181 0.0
    vertex 83.75 1.6746824526945185 3.0
    vertex 82.28354290456363 0.9515058436089181 3.0
  endloop
endfacet
facet normal 0.3214394653031625 -0.9469301294951054 0.0
  outer loop
    vertex 82.28354290456363 0.9515058436089181 3.0
    vertex 80.73523806378152 0.4259271713866483 0.0
    vertex 82.28354290456363 0.9515058436089181 0.0
  endloop
endfacet
facet normal 0.3214394653031625 -0.9469301294951054 0.0
  outer loop
    vertex 80.73523806378152 0.4259271713866483 0.0
    vertex 82.28354290456363 0.9515058436089181 3.0
    vertex 80.73523806378152 0.4259271713866483 3.0
  endloop
endfacet
facet normal 0.19509032201612822 -0.9807852804032305 0.0
  outer loop
    vertex 80.73523806378152 0.4259271713866483 3.0
    vertex 79.13157740275065 0.1069392328273714 0.0
    vertex 80.73523806378152 0.4259271713866483 0.0
  endloop
endfacet
facet normal 0.19509032201612822 -0.9807852804032305 0.0
  outer loop
    vertex 79.13157740275065 0.1069392328273714 0.0
    vertex 80.73523806378152 0.4259271713866483 3.0
    vertex 79.13157740275065 0.1069392328273714 3.0
  endloop
endfacet
facet normal -0.06540312923014412 -0.9978589232386036 -0.0
  outer loop
    vertex 12.499999999999988 0.0 3.0
    vertex 10.868422597249344 0.1069392328273714 0.0
    vertex 12.499999999999988 0.0 0.0
  endloop
endfacet
facet normal -0.06540312923014412 -0.9978589232386036 -0.0
  outer loop
    vertex 10.868422597249344 0.1069392328273714 0.0
    vertex 12.499999999999988 0.0 3.0
    vertex 10.868422597249344 0.1069392328273714 3.0
  endloop
endfacet
facet normal -0.19509032201612872 -0.9807852804032304 -0.0
  outer loop
    vertex 10.868422597249344 0.1069392328273714 3.0
    vertex 9.264761936218482 0.4259271713866483 0.0
    vertex 10.868422597249344 0.1069392328273714 0.0
  endloop
endfacet
facet normal -0.19509032201612872 -0.9807852804032304 -0.0
  outer loop
    vertex 9.264761936218482 0.4259271713866483 0.0
    vertex 10.868422597249344 0.1069392328273714 3.0
    vertex 9.264761936218482 0.4259271713866483 3.0
  endloop
endfacet
facet normal -0.3214394653031625 -0.9469301294951054 -0.0
  outer loop
    vertex 9.264761936218482 0.4259271713866483 3.0
    vertex 7.716457095436372 0.9515058436089181 0.0
    vertex 9.264761936218482 0.4259271713866483 0.0
  endloop
endfacet
facet normal -0.3214394653031625 -0.9469301294951054 -0.0
  outer loop
    vertex 7.716457095436372 0.9515058436089181 0.0
    vertex 9.264761936218482 0.4259271713866483 3.0
    vertex 7.716457095436372 0.9515058436089181 3.0
  endloop
endfacet
facet normal -0.44228869021900113 -0.8968727415326885 -0.0
  outer loop
    vertex 7.716457095436372 0.9515058436089181 3.0
    vertex 6.249999999999996 1.6746824526945185 0.0
    vertex 7.716457095436372 0.9515058436089181 0.0
  endloop
endfacet
facet normal -0.44228869021900113 -0.8968727415326885 -0.0
  outer loop
    vertex 6.249999999999996 1.6746824526945185 0.0
    vertex 7.716457095436372 0.9515058436089181 3.0
    vertex 6.249999999999996 1.6746824526945185 3.0
  endloop
endfacet
facet normal -0.5555702330196026 -0.831469612302545 -0.0
  outer loop
    vertex 6.249999999999996 1.6746824526945185 3.0
    vertex 4.890482137390989 2.583083246359562 0.0
    vertex 6.249999999999996 1.6746824526945185 0.0
  endloop
endfacet
facet normal -0.5555702330196026 -0.831469612302545 -0.0
  outer loop
    vertex 4.890482137390989 2.583083246359562 0.0
    vertex 6.249999999999996 1.6746824526945185 3.0
    vertex 4.890482137390989 2.583083246359562 3.0
  endloop
endfacet
facet normal -0.659345815100069 -0.7518398074789775 -0.0
  outer loop
    vertex 4.890482137390989 2.583083246359562 3.0
    vertex 3.6611652351681547 3.661165235168156 0.0
    vertex 4.890482137390989 2.583083246359562 0.0
  endloop
endfacet
facet normal -0.659345815100069 -0.7518398074789775 -0.0
  outer loop
    vertex 3.6611652351681547 3.661165235168156 0.0
    vertex 4.890482137390989 2.583083246359562 3.0
    vertex 3.6611652351681547 3.661165235168156 3.0
  endloop
endfacet
facet normal -0.7518398074789777 -0.6593458151000685 -0.0
  outer loop
    vertex 2.5830832463595605 4.890482137390992 3.0
    vertex 3.6611652351681547 3.661165235168156 0.0
    vertex 3.6611652351681547 3.661165235168156 3.0
  endloop
endfacet
facet normal -0.7518398074789777 -0.6593458151000685 -0.0
  outer loop
    vertex 3.6611652351681547 3.661165235168156 0.0
    vertex 2.5830832463595605 4.890482137390992 3.0
    vertex 2.5830832463595605 4.890482137390992 0.0
  endloop
endfacet
facet normal -0.8314696123025449 -0.5555702330196031 -0.0
  outer loop
    vertex 1.674682452694517 6.249999999999997 3.0
    vertex 2.5830832463595605 4.890482137390992 0.0
    vertex 2.5830832463595605 4.890482137390992 3.0
  endloop
endfacet
facet normal -0.8314696123025449 -0.5555702330196031 -0.0
  outer loop
    vertex 2.5830832463595605 4.890482137390992 0.0
    vertex 1.674682452694517 6.249999999999997 3.0
    vertex 1.674682452694517 6.249999999999997 0.0
  endloop
endfacet
facet normal -0.8968727415326885 -0.44228869021900113 -0.0
  outer loop
    vertex 0.9515058436089168 7.716457095436374 3.0
    vertex 1.674682452694517 6.249999999999997 0.0
    vertex 1.674682452694517 6.249999999999997 3.0
  endloop
endfacet
facet normal -0.8968727415326885 -0.44228869021900113 -0.0
  outer loop
    vertex 1.674682452694517 6.249999999999997 0.0
    vertex 0.9515058436089168 7.716457095436374 3.0
    vertex 0.9515058436089168 7.716457095436374 0.0
  endloop
endfacet
facet normal -0.9469301294951057 -0.321439465303162 -0.0
  outer loop
    vertex 0.42592717138664693 9.264761936218486 3.0
    vertex 0.9515058436089168 7.716457095436374 0.0
    vertex 0.9515058436089168 7.716457095436374 3.0
  endloop
endfacet
facet normal -0.9469301294951057 -0.321439465303162 -0.0
  outer loop
    vertex 0.9515058436089168 7.716457095436374 0.0
    vertex 0.42592717138664693 9.264761936218486 3.0
    vertex 0.42592717138664693 9.264761936218486 0.0
  endloop
endfacet
facet normal -0.9807852804032304 -0.1950903220161284 -0.0
  outer loop
    vertex 0.10693923282737 10.868422597249351 3.0
    vertex 0.42592717138664693 9.264761936218486 0.0
    vertex 0.42592717138664693 9.264761936218486 3.0
  endloop
endfacet
facet normal -0.9807852804032304 -0.1950903220161284 -0.0
  outer loop
    vertex 0.42592717138664693 9.264761936218486 0.0
    vertex 0.10693923282737 10.868422597249351 3.0
    vertex 0.10693923282737 10.868422597249351 0.0
  endloop
endfacet
facet normal -0.9978589232386037 -0.06540312923014309 -0.0
  outer loop
    vertex 0.0 12.499999999999998 3.0
    vertex 0.10693923282737 10.868422597249351 0.0
    vertex 0.10693923282737 10.868422597249351 3.0
  endloop
endfacet
facet normal -0.9978589232386037 -0.06540312923014309 -0.0
  outer loop
    vertex 0.10693923282737 10.868422597249351 0.0
    vertex 0.0 12.499999999999998 3.0
    vertex 0.0 12.499999999999998 0.0
  endloop
endfacet
facet normal -0.9978589232386035 0.06540312923014319 0.0
  outer loop
    vertex 0.10693923282737 14.131577402750642 3.0
    vertex 0.0 12.499999999999998 0.0
    vertex 0.0 12.499999999999998 3.0
  endloop
endfacet
facet normal -0.9978589232386035 0.06540312923014319 0.0
  outer loop
    vertex 0.0 12.499999999999998 0.0
    vertex 0.10693923282737 14.131577402750642 3.0
    vertex 0.10693923282737 14.131577402750642 0.0
  endloop
endfacet
facet normal -0.9807852804032308 0.19509032201612742 0.0
  outer loop
    vertex 0.4259271713866455 15.735238063781509 3.0
    vertex 0.10693923282737 14.131577402750642 0.0
    vertex 0.10693923282737 14.131577402750642 3.0
  endloop
endfacet
facet normal -0.9807852804032308 0.19509032201612742 0.0
  outer loop
    vertex 0.10693923282737 14.131577402750642 0.0
    vertex 0.4259271713866455 15.735238063781509 3.0
    vertex 0.4259271713866455 15.735238063781509 0.0
  endloop
endfacet
facet normal -0.9469301294951057 0.321439465303162 0.0
  outer loop
    vertex 0.9515058436089153 17.28354290456362 3.0
    vertex 0.4259271713866455 15.735238063781509 0.0
    vertex 0.4259271713866455 15.735238063781509 3.0
  endloop
endfacet
facet normal -0.9469301294951057 0.321439465303162 0.0
  outer loop
    vertex 0.4259271713866455 15.735238063781509 0.0
    vertex 0.9515058436089153 17.28354290456362 3.0
    vertex 0.9515058436089153 17.28354290456362 0.0
  endloop
endfacet
facet normal -0.8968727415326883 0.44228869021900147 0.0
  outer loop
    vertex 1.674682452694517 18.75 3.0
    vertex 0.9515058436089153 17.28354290456362 0.0
    vertex 0.9515058436089153 17.28354290456362 3.0
  endloop
endfacet
facet normal -0.8968727415326883 0.44228869021900147 0.0
  outer loop
    vertex 0.9515058436089153 17.28354290456362 0.0
    vertex 1.674682452694517 18.75 3.0
    vertex 1.674682452694517 18.75 0.0
  endloop
endfacet
facet normal -0.8314696123025451 0.5555702330196024 0.0
  outer loop
    vertex 2.583083246359562 20.10951786260901 3.0
    vertex 1.674682452694517 18.75 0.0
    vertex 1.674682452694517 18.75 3.0
  endloop
endfacet
facet normal -0.8314696123025451 0.5555702330196024 0.0
  outer loop
    vertex 1.674682452694517 18.75 0.0
    vertex 2.583083246359562 20.10951786260901 3.0
    vertex 2.583083246359562 20.10951786260901 0.0
  endloop
endfacet
facet normal -0.751839807478978 0.6593458151000681 0.0
  outer loop
    vertex 3.661165235168156 21.338834764831844 3.0
    vertex 2.583083246359562 20.10951786260901 0.0
    vertex 2.583083246359562 20.10951786260901 3.0
  endloop
endfacet
facet normal -0.751839807478978 0.6593458151000681 0.0
  outer loop
    vertex 2.583083246359562 20.10951786260901 0.0
    vertex 3.661165235168156 21.338834764831844 3.0
    vertex 3.661165235168156 21.338834764831844 0.0
  endloop
endfacet
facet normal -0.6593458151000681 0.751839807478978 0.0
  outer loop
    vertex 3.661165235168156 21.338834764831844 3.0
    vertex 4.890482137390993 22.41691675364044 0.0
    vertex 3.661165235168156 21.338834764831844 0.0
  endloop
endfacet
facet normal -0.6593458151000681 0.751839807478978 0.0
  outer loop
    vertex 4.890482137390993 22.41691675364044 0.0
    vertex 3.661165235168156 21.338834764831844 3.0
    vertex 4.890482137390993 22.41691675364044 3.0
  endloop
endfacet
facet normal -0.5555702330196024 0.8314696123025451 0.0
  outer loop
    vertex 4.890482137390993 22.41691675364044 3.0
    vertex 6.250000000000001 23.325317547305485 0.0
    vertex 4.890482137390993 22.41691675364044 0.0
  endloop
endfacet
facet normal -0.5555702330196024 0.8314696123025451 0.0
  outer loop
    vertex 6.250000000000001 23.325317547305485 0.0
    vertex 4.890482137390993 22.41691675364044 3.0
    vertex 6.250000000000001 23.325317547305485 3.0
  endloop
endfacet
facet normal -0.4422886902190017 0.8968727415326883 0.0
  outer loop
    vertex 6.250000000000001 23.325317547305485 3.0
    vertex 7.716457095436378 24.048494156391087 0.0
    vertex 6.250000000000001 23.325317547305485 0.0
  endloop
endfacet
facet normal -0.4422886902190017 0.8968727415326883 0.0
  outer loop
    vertex 7.716457095436378 24.048494156391087 0.0
    vertex 6.250000000000001 23.325317547305485 3.0
    vertex 7.716457095436378 24.048494156391087 3.0
  endloop
endfacet
facet normal -0.321439465303162 0.9469301294951057 0.0
  outer loop
    vertex 7.716457095436378 24.048494156391087 3.0
    vertex 9.264761936218491 24.574072828613357 0.0
    vertex 7.716457095436378 24.048494156391087 0.0
  endloop
endfacet
facet normal -0.321439465303162 0.9469301294951057 0.0
  outer loop
    vertex 9.264761936218491 24.574072828613357 0.0
    vertex 7.716457095436378 24.048494156391087 3.0
    vertex 9.264761936218491 24.574072828613357 3.0
  endloop
endfacet
facet normal -0.19509032201612606 0.9807852804032309 0.0
  outer loop
    vertex 9.264761936218491 24.574072828613357 3.0
    vertex 10.868422597249355 24.893060767172628 0.0
    vertex 9.264761936218491 24.574072828613357 0.0
  endloop
endfacet
facet normal -0.19509032201612606 0.9807852804032309 0.0
  outer loop
    vertex 10.868422597249355 24.893060767172628 0.0
    vertex 9.264761936218491 24.574072828613357 3.0
    vertex 10.868422597249355 24.893060767172628 3.0
  endloop
endfacet
facet normal -0.065403129230144 0.9978589232386036 0.0
  outer loop
    vertex 10.868422597249355 24.893060767172628 3.0
    vertex 12.5 25.0 0.0
    vertex 10.868422597249355 24.893060767172628 0.0
  endloop
endfacet
facet normal -0.065403129230144 0.9978589232386036 0.0
  outer loop
    vertex 12.5 25.0 0.0
    vertex 10.868422597249355 24.893060767172628 3.0
    vertex 12.5 25.0 3.0
  endloop
endfacet
facet normal 0.06540312923014423 -0.9978589232386036 0.0
  outer loop
    vertex 79.13157740275065 0.1069392328273714 3.0
    vertex 77.50000000000001 0.0 0.0
    vertex 79.13157740275065 0.1069392328273714 0.0
  endloop
endfacet
facet normal 0.06540312923014423 -0.9978589232386036 0.0
  outer loop
    vertex 77.50000000000001 0.0 0.0
    vertex 79.13157740275065 0.1069392328273714 3.0
    vertex 77.50000000000001 0.0 3.0
  endloop
endfacet
facet normal -0.0 -1.0 -0.0
  outer loop
    vertex 77.50000000000001 0.0 3.0
    vertex 12.499999999999988 0.0 0.0
    vertex 77.50000000000001 0.0 0.0
  endloop
endfacet
facet normal -0.0 -1.0 -0.0
  outer loop
    vertex 12.499999999999988 0.0 0.0
    vertex 77.50000000000001 0.0 3.0
    vertex 12.499999999999988 0.0 3.0
  endloop
endfacet
facet normal 0.0 0.0 1.0
  outer loop
    vertex 18.0 45.0 18.0
    vertex 15.0 50.0 18.0
    vertex 15.0 45.0 18.0
  endloop
endfacet
facet normal 0.0 0.0 1.0
  outer loop
    vertex 15.0 50.0 18.0
    vertex 18.0 45.0 18.0
    vertex 18.0 50.0 18.0
  endloop
endfacet
facet normal 0.0 -1.0 0.0
  outer loop
    vertex 18.0 45.0 18.0
    vertex 15.0 45.0 3.0
    vertex 18.0 45.0 3.0
  endloop
endfacet
facet normal 0.0 -1.0 0.0
  outer loop
    vertex 15.0 45.0 3.0
    vertex 18.0 45.0 18.0
    vertex 15.0 45.0 18.0
  endloop
endfacet
facet normal -3.8009362140231404e-33 -2.3797958610816076e-33 1.0
  outer loop
    vertex 75.0 45.0 3.0
    vertex 72.0 45.0 3.0
    vertex 75.0 25.0 3.0
  endloop
endfacet
facet normal -3.8009362140231404e-33 -2.3797958610816076e-33 1.0
  outer loop
    vertex 0.10693923282737 10.868422597249351 3.0
    vertex 0.10693923282737 14.131577402750642 3.0
    vertex 0.0 12.499999999999998 3.0
  endloop
endfacet
facet normal -3.8009362140231404e-33 -2.3797958610816076e-33 1.0
  outer loop
    vertex 0.10693923282737 14.131577402750642 3.0
    vertex 0.10693923282737 10.868422597249351 3.0
    vertex 0.42592717138664693 9.264761936218486 3.0
  endloop
endfacet
facet normal -3.8009362140231404e-33 -2.3797958610816076e-33 1.0
  outer loop
    vertex 0.10693923282737 14.131577402750642 3.0
    vertex 0.42592717138664693 9.264761936218486 3.0
    vertex 0.4259271713866455 15.735238063781509 3.0
  endloop
endfacet
facet normal -3.8009362140231404e-33 -2.3797958610816076e-33 1.0
  outer loop
    vertex 0.4259271713866455 15.735238063781509 3.0
    vertex 0.42592717138664693 9.264761936218486 3.0
    vertex 0.9515058436089153 17.28354290456362 3.0
  endloop
endfacet
facet normal -3.8009362140231404e-33 -2.3797958610816076e-33 1.0
  outer loop
    vertex 0.9515058436089153 17.28354290456362 3.0
    vertex 0.42592717138664693 9.264761936218486 3.0
    vertex 0.9515058436089168 7.716457095436374 3.0
  endloop
endfacet
facet normal -3.8009362140231404e-33 -2.3797958610816076e-33 1.0
  outer loop
    vertex 0.9515058436089153 17.28354290456362 3.0
    vertex 0.9515058436089168 7.716457095436374 3.0
    vertex 1.674682452694517 18.75 3.0
  endloop
endfacet
facet normal -3.8009362140231404e-33 -2.3797958610816076e-33 1.0
  outer loop
    vertex 1.674682452694517 18.75 3.0
    vertex 0.9515058436089168 7.716457095436374 3.0
    vertex 1.674682452694517 6.249999999999997 3.0
  endloop
endfacet
facet normal -3.8009362140231404e-33 -2.3797958610816076e-33 1.0
  outer loop
    vertex 1.674682452694517 18.75 3.0
    vertex 1.674682452694517 6.249999999999997 3.0
    vertex 2.5830832463595605 4.890482137390992 3.0
  endloop
endfacet
facet normal -3.8009362140231404e-33 -2.3797958610816076e-33 1.0
  outer loop
    vertex 1.674682452694517 18.75 3.0
    vertex 2.5830832463595605 4.890482137390992 3.0
    vertex 2.583083246359562 20.10951786260901 3.0
  endloop
endfacet
facet normal -3.8009362140231404e-33 -2.3797958610816076e-33 1.0
  outer loop
    vertex 2.583083246359562 20.10951786260901 3.0
    vertex 2.5830832463595605 4.890482137390992 3.0
    vertex 3.6611652351681547 3.661165235168156 3.0
  endloop
endfacet
facet normal -3.8009362140231404e-33 -2.3797958610816076e-33 1.0
  outer loop
    vertex 2.583083246359562 20.10951786260901 3.0
    vertex 3.6611652351681547 3.661165235168156 3.0
    vertex 3.661165235168156 21.338834764831844 3.0
  endloop
endfacet
facet normal -3.8009362140231404e-33 -2.3797958610816076e-33 1.0
  outer loop
    vertex 3.661165235168156 21.338834764831844 3.0
    vertex 3.6611652351681547 3.661165235168156 3.0
    vertex 4.890482137390989 2.583083246359562 3.0
  endloop
endfacet
facet normal -3.8009362140231404e-33 -2.3797958610816076e-33 1.0
  outer loop
    vertex 3.661165235168156 21.338834764831844 3.0
    vertex 4.890482137390989 2.583083246359562 3.0
    vertex 4.890482137390993 22.41691675364044 3.0
  endloop
endfacet
facet normal -3.8009362140231404e-33 -2.3797958610816076e-33 1.0
  outer loop
    vertex 4.890482137390993 22.41691675364044 3.0
    vertex 4.890482137390989 2.583083246359562 3.0
    vertex 6.249999999999996 1.6746824526945185 3.0
  endloop
endfacet
facet normal -3.8009362140231404e-33 -2.3797958610816076e-33 1.0
  outer loop
    vertex 4.890482137390993 22.41691675364044 3.0
    vertex 6.249999999999996 1.6746824526945185 3.0
    vertex 6.250000000000001 23.325317547305485 3.0
  endloop
endfacet
facet normal -3.8009362140231404e-33 -2.3797958610816076e-33 1.0
  outer loop
    vertex 6.250000000000001 23.325317547305485 3.0
    vertex 6.249999999999996 1.6746824526945185 3.0
    vertex 7.716457095436372 0.9515058436089181 3.0
  endloop
endfacet
facet normal -3.8009362140231404e-33 -2.3797958610816076e-33 1.0
  outer loop
    vertex 6.250000000000001 23.325317547305485 3.0
    vertex 7.716457095436372 0.9515058436089181 3.0
    vertex 7.716457095436378 24.048494156391087 3.0
  endloop
endfacet
facet normal -3.8009362140231404e-33 -2.3797958610816076e-33 1.0
  outer loop
    vertex 7.716457095436378 24.048494156391087 3.0
    vertex 7.716457095436372 0.9515058436089181 3.0
    vertex 9.264761936218482 0.4259271713866483 3.0
  endloop
endfacet
facet normal -3.8009362140231404e-33 -2.3797958610816076e-33 1.0
  outer loop
    vertex 7.716457095436378 24.048494156391087 3.0
    vertex 9.264761936218482 0.4259271713866483 3.0
    vertex 9.264761936218491 24.574072828613357 3.0
  endloop
endfacet
facet normal -3.8009362140231404e-33 -2.3797958610816076e-33 1.0
  outer loop
    vertex 9.264761936218491 24.574072828613357 3.0
    vertex 9.264761936218482 0.4259271713866483 3.0
    vertex 10.868422597249344 0.1069392328273714 3.0
  endloop
endfacet
facet normal -3.8009362140231404e-33 -2.3797958610816076e-33 1.0
  outer loop
    vertex 9.264761936218491 24.574072828613357 3.0
    vertex 10.868422597249344 0.1069392328273714 3.0
    vertex 10.868422597249355 24.893060767172628 3.0
  endloop
endfacet
facet normal -3.8009362140231404e-33 -2.3797958610816076e-33 1.0
  outer loop
    vertex 10.868422597249355 24.893060767172628 3.0
    vertex 10.868422597249344 0.1069392328273714 3.0
    vertex 12.499999999999988 0.0 3.0
  endloop
endfacet
facet normal -3.8009362140231404e-33 -2.3797958610816076e-33 1.0
  outer loop
    vertex 10.868422597249355 24.893060767172628 3.0
    vertex 12.499999999999988 0.0 3.0
    vertex 12.5 25.0 3.0
  endloop
endfacet
facet normal -3.8009362140231404e-33 -2.3797958610816076e-33 1.0
  outer loop
    vertex 12.5 25.0 3.0
    vertex 12.499999999999988 0.0 3.0
    vertex 77.50000000000001 0.0 3.0
  endloop
endfacet
facet normal -3.8009362140231404e-33 -2.3797958610816076e-33 1.0
  outer loop
    vertex 12.5 25.0 3.0
    vertex 77.50000000000001 0.0 3.0
    vertex 15.0 25.0 3.0
  endloop
endfacet
facet normal -3.8009362140231404e-33 -2.3797958610816076e-33 1.0
  outer loop
    vertex 15.0 25.0 3.0
    vertex 77.50000000000001 0.0 3.0
    vertex 18.0 25.0 3.0
  endloop
endfacet
facet normal -3.8009362140231404e-33 -2.3797958610816076e-33 1.0
  outer loop
    vertex 15.0 25.0 3.0
    vertex 18.0 25.0 3.0
    vertex 15.0 45.0 3.0
  endloop
endfacet
facet normal -3.8009362140231404e-33 -2.3797958610816076e-33 1.0
  outer loop
    vertex 18.0 25.0 3.0
    vertex 77.50000000000001 0.0 3.0
    vertex 72.0 25.0 3.0
  endloop
endfacet
facet normal -3.8009362140231404e-33 -2.3797958610816076e-33 1.0
  outer loop
    vertex 72.0 25.0 3.0
    vertex 77.50000000000001 0.0 3.0
    vertex 72.0 45.0 3.0
  endloop
endfacet
facet normal -3.8009362140231404e-33 -2.3797958610816076e-33 1.0
  outer loop
    vertex 72.0 45.0 3.0
    vertex 77.50000000000001 0.0 3.0
    vertex 75.0 25.0 3.0
  endloop
endfacet
facet normal -3.8009362140231404e-33 -2.3797958610816076e-33 1.0
  outer loop
    vertex 75.0 25.0 3.0
    vertex 77.50000000000001 0.0 3.0
    vertex 77.5 25.0 3.0
  endloop
endfacet
facet normal -3.8009362140231404e-33 -2.3797958610816076e-33 1.0
  outer loop
    vertex 77.5 25.0 3.0
    vertex 77.50000000000001 0.0 3.0
    vertex 79.13157740275065 24.893060767172628 3.0
  endloop
endfacet
facet normal -3.8009362140231404e-33 -2.3797958610816076e-33 1.0
  outer loop
    vertex 79.13157740275065 24.893060767172628 3.0
    vertex 77.50000000000001 0.0 3.0
    vertex 79.13157740275065 0.1069392328273714 3.0
  endloop
endfacet
facet normal -3.8009362140231404e-33 -2.3797958610816076e-33 1.0
  outer loop
    vertex 79.13157740275065 24.893060767172628 3.0
    vertex 79.13157740275065 0.1069392328273714 3.0
    vertex 80.73523806378151 24.574072828613357 3.0
  endloop
endfacet
facet normal -3.8009362140231404e-33 -2.3797958610816076e-33 1.0
  outer loop
    vertex 80.73523806378151 24.574072828613357 3.0
    vertex 79.13157740275065 0.1069392328273714 3.0
    vertex 80.73523806378152 0.4259271713866483 3.0
  endloop
endfacet
facet normal -3.8009362140231404e-33 -2.3797958610816076e-33 1.0
  outer loop
    vertex 80.73523806378151 24.574072828613357 3.0
    vertex 80.73523806378152 0.4259271713866483 3.0
    vertex 82.28354290456362 24.048494156391087 3.0
  endloop
endfacet
facet normal -3.8009362140231404e-33 -2.3797958610816076e-33 1.0
  outer loop
    vertex 82.28354290456362 24.048494156391087 3.0
    vertex 80.73523806378152 0.4259271713866483 3.0
    vertex 82.28354290456363 0.9515058436089181 3.0
  endloop
endfacet
facet normal -3.8009362140231404e-33 -2.3797958610816076e-33 1.0
  outer loop
    vertex 82.28354290456362 24.048494156391087 3.0
    vertex 82.28354290456363 0.9515058436089181 3.0
    vertex 83.75 23.325317547305485 3.0
  endloop
endfacet
facet normal -3.8009362140231404e-33 -2.3797958610816076e-33 1.0
  outer loop
    vertex 83.75 23.325317547305485 3.0
    vertex 82.28354290456363 0.9515058436089181 3.0
    vertex 83.75 1.6746824526945185 3.0
  endloop
endfacet
facet normal -3.8009362140231404e-33 -2.3797958610816076e-33 1.0
  outer loop
    vertex 83.75 23.325317547305485 3.0
    vertex 83.75 1.6746824526945185 3.0
    vertex 85.10951786260901 2.583083246359562 3.0
  endloop
endfacet
facet normal -3.8009362140231404e-33 -2.3797958610816076e-33 1.0
  outer loop
    vertex 83.75 23.325317547305485 3.0
    vertex 85.10951786260901 2.583083246359562 3.0
    vertex 85.10951786260901 22.41691675364044 3.0
  endloop
endfacet
facet normal -3.8009362140231404e-33 -2.3797958610816076e-33 1.0
  outer loop
    vertex 85.10951786260901 22.41691675364044 3.0
    vertex 85.10951786260901 2.583083246359562 3.0
    vertex 86.33883476483184 3.661165235168156 3.0
  endloop
endfacet
facet normal -3.8009362140231404e-33 -2.3797958610816076e-33 1.0
  outer loop
    vertex 85.10951786260901 22.41691675364044 3.0
    vertex 86.33883476483184 3.661165235168156 3.0
    vertex 86.33883476483184 21.338834764831844 3.0
  endloop
endfacet
facet normal -3.8009362140231404e-33 -2.3797958610816076e-33 1.0
  outer loop
    vertex 86.33883476483184 21.338834764831844 3.0
    vertex 86.33883476483184 3.661165235168156 3.0
    vertex 87.41691675364044 4.890482137390992 3.0
  endloop
endfacet
facet normal -3.8009362140231404e-33 -2.3797958610816076e-33 1.0
  outer loop
    vertex 86.33883476483184 21.338834764831844 3.0
    vertex 87.41691675364044 4.890482137390992 3.0
    vertex 87.41691675364044 20.10951786260901 3.0
  endloop
endfacet
facet normal -3.8009362140231404e-33 -2.3797958610816076e-33 1.0
  outer loop
    vertex 87.41691675364044 20.10951786260901 3.0
    vertex 87.41691675364044 4.890482137390992 3.0
    vertex 88.32531754730549 6.249999999999997 3.0
  endloop
endfacet
facet normal -3.8009362140231404e-33 -2.3797958610816076e-33 1.0
  outer loop
    vertex 87.41691675364044 20.10951786260901 3.0
    vertex 88.32531754730549 6.249999999999997 3.0
    vertex 88.32531754730549 18.75 3.0
  endloop
endfacet
facet normal -3.8009362140231404e-33 -2.3797958610816076e-33 1.0
  outer loop
    vertex 88.32531754730549 18.75 3.0
    vertex 88.32531754730549 6.249999999999997 3.0
    vertex 89.04849415639109 7.716457095436374 3.0
  endloop
endfacet
facet normal -3.8009362140231404e-33 -2.3797958610816076e-33 1.0
  outer loop
    vertex 88.32531754730549 18.75 3.0
    vertex 89.04849415639109 7.716457095436374 3.0
    vertex 89.04849415639109 17.28354290456362 3.0
  endloop
endfacet
facet normal -3.8009362140231404e-33 -2.3797958610816076e-33 1.0
  outer loop
    vertex 89.04849415639109 17.28354290456362 3.0
    vertex 89.04849415639109 7.716457095436374 3.0
    vertex 89.57407282861335 9.264761936218486 3.0
  endloop
endfacet
facet normal -3.8009362140231404e-33 -2.3797958610816076e-33 1.0
  outer loop
    vertex 89.04849415639109 17.28354290456362 3.0
    vertex 89.57407282861335 9.264761936218486 3.0
    vertex 89.57407282861335 15.735238063781509 3.0
  endloop
endfacet
facet normal -3.8009362140231404e-33 -2.3797958610816076e-33 1.0
  outer loop
    vertex 89.57407282861335 15.735238063781509 3.0
    vertex 89.57407282861335 9.264761936218486 3.0
    vertex 89.89306076717264 10.868422597249351 3.0
  endloop
endfacet
facet normal -3.8009362140231404e-33 -2.3797958610816076e-33 1.0
  outer loop
    vertex 89.57407282861335 15.735238063781509 3.0
    vertex 89.89306076717264 10.868422597249351 3.0
    vertex 89.89306076717264 14.131577402750642 3.0
  endloop
endfacet
facet normal -3.8009362140231404e-33 -2.3797958610816076e-33 1.0
  outer loop
    vertex 89.89306076717264 14.131577402750642 3.0
    vertex 89.89306076717264 10.868422597249351 3.0
    vertex 90.0 12.499999999999998 3.0
  endloop
endfacet
facet normal -3.8009362140231404e-33 -2.3797958610816076e-33 1.0
  outer loop
    vertex 18.0 45.0 3.0
    vertex 15.0 45.0 3.0
    vertex 18.0 25.0 3.0
  endloop
endfacet
facet normal 0.0 0.0 1.0
  outer loop
    vertex 75.0 45.0 18.0
    vertex 72.0 50.0 18.0
    vertex 72.0 45.0 18.0
  endloop
endfacet
facet normal 0.0 0.0 1.0
  outer loop
    vertex 72.0 50.0 18.0
    vertex 75.0 45.0 18.0
    vertex 75.0 50.0 18.0
  endloop
endfacet
facet normal 0.0 -1.0 0.0
  outer loop
    vertex 75.0 45.0 18.0
    vertex 72.0 45.0 3.0
    vertex 75.0 45.0 3.0
  endloop
endfacet
facet normal 0.0 -1.0 0.0
  outer loop
    vertex 72.0 45.0 3.0
    vertex 75.0 45.0 18.0
    vertex 72.0 45.0 18.0
  endloop
endfacet
endsolid modele-poigne
