solid modele-poigne-rond
facet normal -0.06540312923014656 0.9978589232386033 0.0
  outer loop
    vertex -1.6315774027506396 12.393060767172631 3.0
    vertex -1.5 12.401684805777142 0.0
    vertex -1.6315774027506396 12.393060767172631 0.0
  endloop
endfacet
facet normal -0.06540312923014656 0.9978589232386033 0.0
  outer loop
    vertex -1.5 12.401684805777142 0.0
    vertex -1.6315774027506396 12.393060767172631 3.0
    vertex -1.5 12.401684805777142 3.0
  endloop
endfacet
facet normal -1.0 1.7624790515924363e-17 0.0
  outer loop
    vertex -1.5 32.40168480577714 3.0
    vertex -1.5 12.401684805777142 0.0
    vertex -1.5 12.401684805777142 3.0
  endloop
endfacet
facet normal -1.0 1.7624790515924363e-17 0.0
  outer loop
    vertex -1.5 12.401684805777142 0.0
    vertex -1.5 32.40168480577714 3.0
    vertex -1.5 32.40168480577714 0.0
  endloop
endfacet
facet normal -0.6593458151000678 0.7518398074789784 0.0
  outer loop
    vertex -8.838834764831843 8.838834764831846 3.0
    vertex -7.609517862608998 9.916916753640447 0.0
    vertex -8.838834764831843 8.838834764831846 0.0
  endloop
endfacet
facet normal -0.6593458151000678 0.7518398074789784 0.0
  outer loop
    vertex -7.609517862608998 9.916916753640447 0.0
    vertex -8.838834764831843 8.838834764831846 3.0
    vertex -7.609517862608998 9.916916753640447 3.0
  endloop
endfacet
facet normal -0.7518398074789775 0.659345815100069 0.0
  outer loop
    vertex -8.838834764831843 8.838834764831846 3.0
    vertex -9.916916753640436 7.609517862609012 0.0
    vertex -9.916916753640436 7.609517862609012 3.0
  endloop
endfacet
facet normal -0.7518398074789775 0.659345815100069 0.0
  outer loop
    vertex -9.916916753640436 7.609517862609012 0.0
    vertex -8.838834764831843 8.838834764831846 3.0
    vertex -8.838834764831843 8.838834764831846 0.0
  endloop
endfacet
facet normal -0.44228869021900025 0.8968727415326889 0.0
  outer loop
    vertex -6.249999999999991 10.825317547305486 3.0
    vertex -4.783542904563613 11.548494156391087 0.0
    vertex -6.249999999999991 10.825317547305486 0.0
  endloop
endfacet
facet normal -0.44228869021900025 0.8968727415326889 0.0
  outer loop
    vertex -4.783542904563613 11.548494156391087 0.0
    vertex -6.249999999999991 10.825317547305486 3.0
    vertex -4.783542904563613 11.548494156391087 3.0
  endloop
endfacet
facet normal -0.19509032201612792 0.9807852804032307 0.0
  outer loop
    vertex -3.2352380637815035 12.074072828613355 3.0
    vertex -1.6315774027506396 12.393060767172631 0.0
    vertex -3.2352380637815035 12.074072828613355 0.0
  endloop
endfacet
facet normal -0.19509032201612792 0.9807852804032307 0.0
  outer loop
    vertex -1.6315774027506396 12.393060767172631 0.0
    vertex -3.2352380637815035 12.074072828613355 3.0
    vertex -1.6315774027506396 12.393060767172631 3.0
  endloop
endfacet
facet normal -0.555570233019602 0.8314696123025453 0.0
  outer loop
    vertex -7.609517862608998 9.916916753640447 3.0
    vertex -6.249999999999991 10.825317547305486 0.0
    vertex -7.609517862608998 9.916916753640447 0.0
  endloop
endfacet
facet normal -0.555570233019602 0.8314696123025453 0.0
  outer loop
    vertex -6.249999999999991 10.825317547305486 0.0
    vertex -7.609517862608998 9.916916753640447 3.0
    vertex -6.249999999999991 10.825317547305486 3.0
  endloop
endfacet
facet normal -0.3214394653031616 0.9469301294951058 0.0
  outer loop
    vertex -4.783542904563613 11.548494156391087 3.0
    vertex -3.2352380637815035 12.074072828613355 0.0
    vertex -4.783542904563613 11.548494156391087 0.0
  endloop
endfacet
facet normal -0.3214394653031616 0.9469301294951058 0.0
  outer loop
    vertex -3.2352380637815035 12.074072828613355 0.0
    vertex -4.783542904563613 11.548494156391087 3.0
    vertex -3.2352380637815035 12.074072828613355 3.0
  endloop
endfacet
facet normal -0.0 -1.0 -0.0
  outer loop
    vertex -1.5 32.40168480577714 3.0
    vertex -15.0 32.40168480577714 0.0
    vertex -1.5 32.40168480577714 0.0
  endloop
endfacet
facet normal -0.0 -1.0 -0.0
  outer loop
    vertex -15.0 32.40168480577714 0.0
    vertex -1.5 32.40168480577714 3.0
    vertex -12.0 32.40168480577714 3.0
  endloop
endfacet
facet normal -0.0 -1.0 -0.0
  outer loop
    vertex -15.0 32.40168480577714 0.0
    vertex -12.0 32.40168480577714 3.0
    vertex -15.0 32.40168480577714 18.0
  endloop
endfacet
facet normal -0.0 -1.0 -0.0
  outer loop
    vertex -15.0 32.40168480577714 18.0
    vertex -12.0 32.40168480577714 3.0
    vertex -12.0 32.40168480577714 18.0
  endloop
endfacet
facet normal 1.0318612840865347e-31 -1.4250283638029613e-32 1.0
  outer loop
    vertex -12.39306076717263 -1.6315774027506451 3.0
    vertex -12.393060767172628 1.6315774027506564 3.0
    vertex -12.5 0.0 3.0
  endloop
endfacet
facet normal 1.0318612840865347e-31 -1.4250283638029613e-32 1.0
  outer loop
    vertex -12.393060767172628 1.6315774027506564 3.0
    vertex -12.39306076717263 -1.6315774027506451 3.0
    vertex -12.074072828613355 -3.2352380637815092 3.0
  endloop
endfacet
facet normal 1.0318612840865347e-31 -1.4250283638029613e-32 1.0
  outer loop
    vertex -12.393060767172628 1.6315774027506564 3.0
    vertex -12.074072828613355 -3.2352380637815092 3.0
    vertex -12.074072828613351 3.2352380637815203 3.0
  endloop
endfacet
facet normal 1.0318612840865347e-31 -1.4250283638029613e-32 1.0
  outer loop
    vertex -12.074072828613351 3.2352380637815203 3.0
    vertex -12.074072828613355 -3.2352380637815092 3.0
    vertex -11.548494156391085 -4.783542904563622 3.0
  endloop
endfacet
facet normal 1.0318612840865347e-31 -1.4250283638029613e-32 1.0
  outer loop
    vertex -12.074072828613351 3.2352380637815203 3.0
    vertex -11.548494156391085 -4.783542904563622 3.0
    vertex -11.548494156391081 4.78354290456363 3.0
  endloop
endfacet
facet normal 1.0318612840865347e-31 -1.4250283638029613e-32 1.0
  outer loop
    vertex -11.548494156391081 4.78354290456363 3.0
    vertex -11.548494156391085 -4.783542904563622 3.0
    vertex -10.825317547305485 -6.249999999999999 3.0
  endloop
endfacet
facet normal 1.0318612840865347e-31 -1.4250283638029613e-32 1.0
  outer loop
    vertex -11.548494156391081 4.78354290456363 3.0
    vertex -10.825317547305485 -6.249999999999999 3.0
    vertex -10.82531754730548 6.250000000000005 3.0
  endloop
endfacet
facet normal 1.0318612840865347e-31 -1.4250283638029613e-32 1.0
  outer loop
    vertex -10.82531754730548 6.250000000000005 3.0
    vertex -10.825317547305485 -6.249999999999999 3.0
    vertex -9.916916753640441 -7.609517862609007 3.0
  endloop
endfacet
facet normal 1.0318612840865347e-31 -1.4250283638029613e-32 1.0
  outer loop
    vertex -10.82531754730548 6.250000000000005 3.0
    vertex -9.916916753640441 -7.609517862609007 3.0
    vertex -9.916916753640436 7.609517862609012 3.0
  endloop
endfacet
facet normal 1.0318612840865347e-31 -1.4250283638029613e-32 1.0
  outer loop
    vertex -9.916916753640436 7.609517862609012 3.0
    vertex -9.916916753640441 -7.609517862609007 3.0
    vertex -8.838834764831844 -8.838834764831844 3.0
  endloop
endfacet
facet normal 1.0318612840865347e-31 -1.4250283638029613e-32 1.0
  outer loop
    vertex -9.916916753640436 7.609517862609012 3.0
    vertex -8.838834764831844 -8.838834764831844 3.0
    vertex -8.838834764831843 8.838834764831846 3.0
  endloop
endfacet
facet normal 1.0318612840865347e-31 -1.4250283638029613e-32 1.0
  outer loop
    vertex -8.838834764831843 8.838834764831846 3.0
    vertex -8.838834764831844 -8.838834764831844 3.0
    vertex -7.609517862609008 -9.91691675364044 3.0
  endloop
endfacet
facet normal 1.0318612840865347e-31 -1.4250283638029613e-32 1.0
  outer loop
    vertex -8.838834764831843 8.838834764831846 3.0
    vertex -7.609517862609008 -9.91691675364044 3.0
    vertex -7.609517862608998 9.916916753640447 3.0
  endloop
endfacet
facet normal 1.0318612840865347e-31 -1.4250283638029613e-32 1.0
  outer loop
    vertex -7.609517862608998 9.916916753640447 3.0
    vertex -7.609517862609008 -9.91691675364044 3.0
    vertex -6.250000000000001 -10.825317547305483 3.0
  endloop
endfacet
facet normal 1.0318612840865347e-31 -1.4250283638029613e-32 1.0
  outer loop
    vertex -7.609517862608998 9.916916753640447 3.0
    vertex -6.250000000000001 -10.825317547305483 3.0
    vertex -6.249999999999991 10.825317547305486 3.0
  endloop
endfacet
facet normal 1.0318612840865347e-31 -1.4250283638029613e-32 1.0
  outer loop
    vertex -6.249999999999991 10.825317547305486 3.0
    vertex -6.250000000000001 -10.825317547305483 3.0
    vertex -4.783542904563622 -11.548494156391085 3.0
  endloop
endfacet
facet normal 1.0318612840865347e-31 -1.4250283638029613e-32 1.0
  outer loop
    vertex -6.249999999999991 10.825317547305486 3.0
    vertex -4.783542904563622 -11.548494156391085 3.0
    vertex -4.783542904563613 11.548494156391087 3.0
  endloop
endfacet
facet normal 1.0318612840865347e-31 -1.4250283638029613e-32 1.0
  outer loop
    vertex -4.783542904563613 11.548494156391087 3.0
    vertex -4.783542904563622 -11.548494156391085 3.0
    vertex -3.235238063781512 -12.074072828613353 3.0
  endloop
endfacet
facet normal 1.0318612840865347e-31 -1.4250283638029613e-32 1.0
  outer loop
    vertex -4.783542904563613 11.548494156391087 3.0
    vertex -3.235238063781512 -12.074072828613353 3.0
    vertex -3.2352380637815035 12.074072828613355 3.0
  endloop
endfacet
facet normal 1.0318612840865347e-31 -1.4250283638029613e-32 1.0
  outer loop
    vertex -3.2352380637815035 12.074072828613355 3.0
    vertex -3.235238063781512 -12.074072828613353 3.0
    vertex -1.6315774027506451 -12.39306076717263 3.0
  endloop
endfacet
facet normal 1.0318612840865347e-31 -1.4250283638029613e-32 1.0
  outer loop
    vertex -3.2352380637815035 12.074072828613355 3.0
    vertex -1.6315774027506451 -12.39306076717263 3.0
    vertex -1.6315774027506396 12.393060767172631 3.0
  endloop
endfacet
facet normal 1.0318612840865347e-31 -1.4250283638029613e-32 1.0
  outer loop
    vertex -1.6315774027506396 12.393060767172631 3.0
    vertex -1.6315774027506451 -12.39306076717263 3.0
    vertex 0.0 -12.5 3.0
  endloop
endfacet
facet normal 1.0318612840865347e-31 -1.4250283638029613e-32 1.0
  outer loop
    vertex -1.6315774027506396 12.393060767172631 3.0
    vertex 0.0 -12.5 3.0
    vertex -1.5 12.401684805777142 3.0
  endloop
endfacet
facet normal 1.0318612840865347e-31 -1.4250283638029613e-32 1.0
  outer loop
    vertex -1.5 12.401684805777142 3.0
    vertex 0.0 -12.5 3.0
    vertex -1.5 32.40168480577714 3.0
  endloop
endfacet
facet normal 1.0318612840865347e-31 -1.4250283638029613e-32 1.0
  outer loop
    vertex 0.0 -12.5 3.0
    vertex 1.5 12.401684805777142 3.0
    vertex 1.4999999999999973 32.40168480577714 3.0
  endloop
endfacet
facet normal 1.0318612840865347e-31 -1.4250283638029613e-32 1.0
  outer loop
    vertex 1.5 12.401684805777142 3.0
    vertex 0.0 -12.5 3.0
    vertex 1.6315774027506424 -12.393060767172631 3.0
  endloop
endfacet
facet normal 1.0318612840865347e-31 -1.4250283638029613e-32 1.0
  outer loop
    vertex 1.5 12.401684805777142 3.0
    vertex 1.6315774027506424 -12.393060767172631 3.0
    vertex 1.6315774027506564 12.393060767172628 3.0
  endloop
endfacet
facet normal 1.0318612840865347e-31 -1.4250283638029613e-32 1.0
  outer loop
    vertex 1.6315774027506564 12.393060767172628 3.0
    vertex 1.6315774027506424 -12.393060767172631 3.0
    vertex 3.2352380637815066 -12.074072828613355 3.0
  endloop
endfacet
facet normal 1.0318612840865347e-31 -1.4250283638029613e-32 1.0
  outer loop
    vertex 1.6315774027506564 12.393060767172628 3.0
    vertex 3.2352380637815066 -12.074072828613355 3.0
    vertex 3.2352380637815177 12.07407282861335 3.0
  endloop
endfacet
facet normal 1.0318612840865347e-31 -1.4250283638029613e-32 1.0
  outer loop
    vertex 3.2352380637815177 12.07407282861335 3.0
    vertex 3.2352380637815066 -12.074072828613355 3.0
    vertex 4.783542904563619 -11.548494156391087 3.0
  endloop
endfacet
facet normal 1.0318612840865347e-31 -1.4250283638029613e-32 1.0
  outer loop
    vertex 3.2352380637815177 12.07407282861335 3.0
    vertex 4.783542904563619 -11.548494156391087 3.0
    vertex 4.783542904563627 11.54849415639108 3.0
  endloop
endfacet
facet normal 1.0318612840865347e-31 -1.4250283638029613e-32 1.0
  outer loop
    vertex 4.783542904563627 11.54849415639108 3.0
    vertex 4.783542904563619 -11.548494156391087 3.0
    vertex 6.249999999999997 -10.825317547305485 3.0
  endloop
endfacet
facet normal 1.0318612840865347e-31 -1.4250283638029613e-32 1.0
  outer loop
    vertex 4.783542904563627 11.54849415639108 3.0
    vertex 6.249999999999997 -10.825317547305485 3.0
    vertex 6.250000000000005 10.825317547305481 3.0
  endloop
endfacet
facet normal 1.0318612840865347e-31 -1.4250283638029613e-32 1.0
  outer loop
    vertex 6.250000000000005 10.825317547305481 3.0
    vertex 6.249999999999997 -10.825317547305485 3.0
    vertex 7.609517862609003 -9.916916753640441 3.0
  endloop
endfacet
facet normal 1.0318612840865347e-31 -1.4250283638029613e-32 1.0
  outer loop
    vertex 6.250000000000005 10.825317547305481 3.0
    vertex 7.609517862609003 -9.916916753640441 3.0
    vertex 7.609517862609012 9.916916753640434 3.0
  endloop
endfacet
facet normal 1.0318612840865347e-31 -1.4250283638029613e-32 1.0
  outer loop
    vertex 7.609517862609012 9.916916753640434 3.0
    vertex 7.609517862609003 -9.916916753640441 3.0
    vertex 8.838834764831844 -8.838834764831844 3.0
  endloop
endfacet
facet normal 1.0318612840865347e-31 -1.4250283638029613e-32 1.0
  outer loop
    vertex 7.609517862609012 9.916916753640434 3.0
    vertex 8.838834764831844 -8.838834764831844 3.0
    vertex 8.83883476483185 8.838834764831837 3.0
  endloop
endfacet
facet normal 1.0318612840865347e-31 -1.4250283638029613e-32 1.0
  outer loop
    vertex 8.83883476483185 8.838834764831837 3.0
    vertex 8.838834764831844 -8.838834764831844 3.0
    vertex 9.916916753640438 -7.60951786260901 3.0
  endloop
endfacet
facet normal 1.0318612840865347e-31 -1.4250283638029613e-32 1.0
  outer loop
    vertex 8.83883476483185 8.838834764831837 3.0
    vertex 9.916916753640438 -7.60951786260901 3.0
    vertex 9.916916753640441 7.609517862609003 3.0
  endloop
endfacet
facet normal 1.0318612840865347e-31 -1.4250283638029613e-32 1.0
  outer loop
    vertex 9.916916753640441 7.609517862609003 3.0
    vertex 9.916916753640438 -7.60951786260901 3.0
    vertex 10.825317547305481 -6.250000000000004 3.0
  endloop
endfacet
facet normal 1.0318612840865347e-31 -1.4250283638029613e-32 1.0
  outer loop
    vertex 9.916916753640441 7.609517862609003 3.0
    vertex 10.825317547305481 -6.250000000000004 3.0
    vertex 10.825317547305486 6.249999999999997 3.0
  endloop
endfacet
facet normal 1.0318612840865347e-31 -1.4250283638029613e-32 1.0
  outer loop
    vertex 10.825317547305486 6.249999999999997 3.0
    vertex 10.825317547305481 -6.250000000000004 3.0
    vertex 11.548494156391087 -4.783542904563624 3.0
  endloop
endfacet
facet normal 1.0318612840865347e-31 -1.4250283638029613e-32 1.0
  outer loop
    vertex 10.825317547305486 6.249999999999997 3.0
    vertex 11.548494156391087 -4.783542904563624 3.0
    vertex 11.548494156391087 4.783542904563617 3.0
  endloop
endfacet
facet normal 1.0318612840865347e-31 -1.4250283638029613e-32 1.0
  outer loop
    vertex 11.548494156391087 4.783542904563617 3.0
    vertex 11.548494156391087 -4.783542904563624 3.0
    vertex 12.074072828613355 -3.235238063781512 3.0
  endloop
endfacet
facet normal 1.0318612840865347e-31 -1.4250283638029613e-32 1.0
  outer loop
    vertex 11.548494156391087 4.783542904563617 3.0
    vertex 12.074072828613355 -3.235238063781512 3.0
    vertex 12.074072828613355 3.2352380637815035 3.0
  endloop
endfacet
facet normal 1.0318612840865347e-31 -1.4250283638029613e-32 1.0
  outer loop
    vertex 12.074072828613355 3.2352380637815035 3.0
    vertex 12.074072828613355 -3.235238063781512 3.0
    vertex 12.393060767172628 -1.6315774027506493 3.0
  endloop
endfacet
facet normal 1.0318612840865347e-31 -1.4250283638029613e-32 1.0
  outer loop
    vertex 12.074072828613355 3.2352380637815035 3.0
    vertex 12.393060767172628 -1.6315774027506493 3.0
    vertex 12.393060767172628 1.6315774027506424 3.0
  endloop
endfacet
facet normal 1.0318612840865347e-31 -1.4250283638029613e-32 1.0
  outer loop
    vertex 12.393060767172628 1.6315774027506424 3.0
    vertex 12.393060767172628 -1.6315774027506493 3.0
    vertex 12.5 -1.4099832412739487e-15 3.0
  endloop
endfacet
facet normal 1.0318612840865347e-31 -1.4250283638029613e-32 1.0
  outer loop
    vertex -1.5 32.40168480577714 3.0
    vertex -12.0 37.401684805777144 3.0
    vertex -12.0 32.40168480577714 3.0
  endloop
endfacet
facet normal 1.0318612840865347e-31 -1.4250283638029613e-32 1.0
  outer loop
    vertex -12.0 37.401684805777144 3.0
    vertex -1.5 32.40168480577714 3.0
    vertex 12.0 37.401684805777144 3.0
  endloop
endfacet
facet normal 1.0318612840865347e-31 -1.4250283638029613e-32 1.0
  outer loop
    vertex 12.0 37.401684805777144 3.0
    vertex -1.5 32.40168480577714 3.0
    vertex 1.4999999999999973 32.40168480577714 3.0
  endloop
endfacet
facet normal 1.0318612840865347e-31 -1.4250283638029613e-32 1.0
  outer loop
    vertex 1.4999999999999973 32.40168480577714 3.0
    vertex -1.5 32.40168480577714 3.0
    vertex 0.0 -12.5 3.0
  endloop
endfacet
facet normal 1.0318612840865347e-31 -1.4250283638029613e-32 1.0
  outer loop
    vertex 12.0 37.401684805777144 3.0
    vertex 1.4999999999999973 32.40168480577714 3.0
    vertex 12.0 32.40168480577714 3.0
  endloop
endfacet
facet normal 0.0 0.0 1.0
  outer loop
    vertex 15.0 32.40168480577714 18.0
    vertex 12.0 37.401684805777144 18.0
    vertex 12.0 32.40168480577714 18.0
  endloop
endfacet
facet normal 0.0 0.0 1.0
  outer loop
    vertex 12.0 37.401684805777144 18.0
    vertex 15.0 32.40168480577714 18.0
    vertex 15.0 37.401684805777144 18.0
  endloop
endfacet
facet normal -1.0 -0.0 -0.0
  outer loop
    vertex 12.0 37.401684805777144 18.0
    vertex 12.0 32.40168480577714 3.0
    vertex 12.0 32.40168480577714 18.0
  endloop
endfacet
facet normal -1.0 -0.0 -0.0
  outer loop
    vertex 12.0 32.40168480577714 3.0
    vertex 12.0 37.401684805777144 18.0
    vertex 12.0 37.401684805777144 3.0
  endloop
endfacet
facet normal 0.0 0.0 -1.0
  outer loop
    vertex -12.393060767172628 1.6315774027506564 0.0
    vertex -12.39306076717263 -1.6315774027506451 0.0
    vertex -12.5 0.0 0.0
  endloop
endfacet
facet normal 0.0 0.0 -1.0
  outer loop
    vertex -12.39306076717263 -1.6315774027506451 0.0
    vertex -12.393060767172628 1.6315774027506564 0.0
    vertex -12.074072828613355 -3.2352380637815092 0.0
  endloop
endfacet
facet normal 0.0 0.0 -1.0
  outer loop
    vertex -12.074072828613355 -3.2352380637815092 0.0
    vertex -12.393060767172628 1.6315774027506564 0.0
    vertex -12.074072828613351 3.2352380637815203 0.0
  endloop
endfacet
facet normal 0.0 0.0 -1.0
  outer loop
    vertex -12.074072828613355 -3.2352380637815092 0.0
    vertex -12.074072828613351 3.2352380637815203 0.0
    vertex -11.548494156391085 -4.783542904563622 0.0
  endloop
endfacet
facet normal 0.0 0.0 -1.0
  outer loop
    vertex -11.548494156391085 -4.783542904563622 0.0
    vertex -12.074072828613351 3.2352380637815203 0.0
    vertex -11.548494156391081 4.78354290456363 0.0
  endloop
endfacet
facet normal 0.0 0.0 -1.0
  outer loop
    vertex -11.548494156391085 -4.783542904563622 0.0
    vertex -11.548494156391081 4.78354290456363 0.0
    vertex -10.825317547305485 -6.249999999999999 0.0
  endloop
endfacet
facet normal 0.0 0.0 -1.0
  outer loop
    vertex -10.825317547305485 -6.249999999999999 0.0
    vertex -11.548494156391081 4.78354290456363 0.0
    vertex -10.82531754730548 6.250000000000005 0.0
  endloop
endfacet
facet normal 0.0 0.0 -1.0
  outer loop
    vertex -10.825317547305485 -6.249999999999999 0.0
    vertex -10.82531754730548 6.250000000000005 0.0
    vertex -9.916916753640441 -7.609517862609007 0.0
  endloop
endfacet
facet normal 0.0 0.0 -1.0
  outer loop
    vertex -9.916916753640441 -7.609517862609007 0.0
    vertex -10.82531754730548 6.250000000000005 0.0
    vertex -9.916916753640436 7.609517862609012 0.0
  endloop
endfacet
facet normal 0.0 0.0 -1.0
  outer loop
    vertex -9.916916753640441 -7.609517862609007 0.0
    vertex -9.916916753640436 7.609517862609012 0.0
    vertex -8.838834764831844 -8.838834764831844 0.0
  endloop
endfacet
facet normal 0.0 0.0 -1.0
  outer loop
    vertex -8.838834764831844 -8.838834764831844 0.0
    vertex -9.916916753640436 7.609517862609012 0.0
    vertex -8.838834764831843 8.838834764831846 0.0
  endloop
endfacet
facet normal 0.0 0.0 -1.0
  outer loop
    vertex -8.838834764831844 -8.838834764831844 0.0
    vertex -8.838834764831843 8.838834764831846 0.0
    vertex -7.609517862609008 -9.91691675364044 0.0
  endloop
endfacet
facet normal 0.0 0.0 -1.0
  outer loop
    vertex -7.609517862609008 -9.91691675364044 0.0
    vertex -8.838834764831843 8.838834764831846 0.0
    vertex -7.609517862608998 9.916916753640447 0.0
  endloop
endfacet
facet normal 0.0 0.0 -1.0
  outer loop
    vertex -7.609517862609008 -9.91691675364044 0.0
    vertex -7.609517862608998 9.916916753640447 0.0
    vertex -6.250000000000001 -10.825317547305483 0.0
  endloop
endfacet
facet normal 0.0 0.0 -1.0
  outer loop
    vertex -6.250000000000001 -10.825317547305483 0.0
    vertex -7.609517862608998 9.916916753640447 0.0
    vertex -6.249999999999991 10.825317547305486 0.0
  endloop
endfacet
facet normal 0.0 0.0 -1.0
  outer loop
    vertex -6.250000000000001 -10.825317547305483 0.0
    vertex -6.249999999999991 10.825317547305486 0.0
    vertex -4.783542904563622 -11.548494156391085 0.0
  endloop
endfacet
facet normal 0.0 0.0 -1.0
  outer loop
    vertex -4.783542904563622 -11.548494156391085 0.0
    vertex -6.249999999999991 10.825317547305486 0.0
    vertex -4.783542904563613 11.548494156391087 0.0
  endloop
endfacet
facet normal 0.0 0.0 -1.0
  outer loop
    vertex -4.783542904563622 -11.548494156391085 0.0
    vertex -4.783542904563613 11.548494156391087 0.0
    vertex -3.235238063781512 -12.074072828613353 0.0
  endloop
endfacet
facet normal 0.0 0.0 -1.0
  outer loop
    vertex -3.235238063781512 -12.074072828613353 0.0
    vertex -4.783542904563613 11.548494156391087 0.0
    vertex -3.2352380637815035 12.074072828613355 0.0
  endloop
endfacet
facet normal 0.0 0.0 -1.0
  outer loop
    vertex -3.235238063781512 -12.074072828613353 0.0
    vertex -3.2352380637815035 12.074072828613355 0.0
    vertex -1.6315774027506451 -12.39306076717263 0.0
  endloop
endfacet
facet normal 0.0 0.0 -1.0
  outer loop
    vertex -1.6315774027506451 -12.39306076717263 0.0
    vertex -3.2352380637815035 12.074072828613355 0.0
    vertex -1.6315774027506396 12.393060767172631 0.0
  endloop
endfacet
facet normal 0.0 0.0 -1.0
  outer loop
    vertex -1.6315774027506451 -12.39306076717263 0.0
    vertex -1.6315774027506396 12.393060767172631 0.0
    vertex 0.0 -12.5 0.0
  endloop
endfacet
facet normal 0.0 0.0 -1.0
  outer loop
    vertex 0.0 -12.5 0.0
    vertex -1.6315774027506396 12.393060767172631 0.0
    vertex -1.5 12.401684805777142 0.0
  endloop
endfacet
facet normal 0.0 0.0 -1.0
  outer loop
    vertex 15.0 37.401684805777144 0.0
    vertex -15.0 32.40168480577714 0.0
    vertex -15.0 37.401684805777144 0.0
  endloop
endfacet
facet normal 0.0 0.0 -1.0
  outer loop
    vertex -15.0 32.40168480577714 0.0
    vertex 15.0 37.401684805777144 0.0
    vertex -1.5 32.40168480577714 0.0
  endloop
endfacet
facet normal 0.0 0.0 -1.0
  outer loop
    vertex -1.5 32.40168480577714 0.0
    vertex 15.0 37.401684805777144 0.0
    vertex 1.4999999999999973 32.40168480577714 0.0
  endloop
endfacet
facet normal 0.0 0.0 -1.0
  outer loop
    vertex -1.5 32.40168480577714 0.0
    vertex 1.4999999999999973 32.40168480577714 0.0
    vertex -1.5 12.401684805777142 0.0
  endloop
endfacet
facet normal 0.0 0.0 -1.0
  outer loop
    vertex -1.5 12.401684805777142 0.0
    vertex 1.4999999999999973 32.40168480577714 0.0
    vertex 0.0 -12.5 0.0
  endloop
endfacet
facet normal 0.0 0.0 -1.0
  outer loop
    vertex 1.4999999999999973 32.40168480577714 0.0
    vertex 15.0 37.401684805777144 0.0
    vertex 15.0 32.40168480577714 0.0
  endloop
endfacet
facet normal 0.0 0.0 -1.0
  outer loop
    vertex 0.0 -12.5 0.0
    vertex 1.5 12.401684805777142 0.0
    vertex 1.6315774027506424 -12.393060767172631 0.0
  endloop
endfacet
facet normal 0.0 0.0 -1.0
  outer loop
    vertex 1.5 12.401684805777142 0.0
    vertex 0.0 -12.5 0.0
    vertex 1.4999999999999973 32.40168480577714 0.0
  endloop
endfacet
facet normal 0.0 0.0 -1.0
  outer loop
    vertex 1.6315774027506424 -12.393060767172631 0.0
    vertex 1.5 12.401684805777142 0.0
    vertex 1.6315774027506564 12.393060767172628 0.0
  endloop
endfacet
facet normal 0.0 0.0 -1.0
  outer loop
    vertex 1.6315774027506424 -12.393060767172631 0.0
    vertex 1.6315774027506564 12.393060767172628 0.0
    vertex 3.2352380637815066 -12.074072828613355 0.0
  endloop
endfacet
facet normal 0.0 0.0 -1.0
  outer loop
    vertex 3.2352380637815066 -12.074072828613355 0.0
    vertex 1.6315774027506564 12.393060767172628 0.0
    vertex 3.2352380637815177 12.07407282861335 0.0
  endloop
endfacet
facet normal 0.0 0.0 -1.0
  outer loop
    vertex 3.2352380637815066 -12.074072828613355 0.0
    vertex 3.2352380637815177 12.07407282861335 0.0
    vertex 4.783542904563619 -11.548494156391087 0.0
  endloop
endfacet
facet normal 0.0 0.0 -1.0
  outer loop
    vertex 4.783542904563619 -11.548494156391087 0.0
    vertex 3.2352380637815177 12.07407282861335 0.0
    vertex 4.783542904563627 11.54849415639108 0.0
  endloop
endfacet
facet normal 0.0 0.0 -1.0
  outer loop
    vertex 4.783542904563619 -11.548494156391087 0.0
    vertex 4.783542904563627 11.54849415639108 0.0
    vertex 6.249999999999997 -10.825317547305485 0.0
  endloop
endfacet
facet normal 0.0 0.0 -1.0
  outer loop
    vertex 6.249999999999997 -10.825317547305485 0.0
    vertex 4.783542904563627 11.54849415639108 0.0
    vertex 6.250000000000005 10.825317547305481 0.0
  endloop
endfacet
facet normal 0.0 0.0 -1.0
  outer loop
    vertex 6.249999999999997 -10.825317547305485 0.0
    vertex 6.250000000000005 10.825317547305481 0.0
    vertex 7.609517862609003 -9.916916753640441 0.0
  endloop
endfacet
facet normal 0.0 0.0 -1.0
  outer loop
    vertex 7.609517862609003 -9.916916753640441 0.0
    vertex 6.250000000000005 10.825317547305481 0.0
    vertex 7.609517862609012 9.916916753640434 0.0
  endloop
endfacet
facet normal 0.0 0.0 -1.0
  outer loop
    vertex 7.609517862609003 -9.916916753640441 0.0
    vertex 7.609517862609012 9.916916753640434 0.0
    vertex 8.838834764831844 -8.838834764831844 0.0
  endloop
endfacet
facet normal 0.0 0.0 -1.0
  outer loop
    vertex 8.838834764831844 -8.838834764831844 0.0
    vertex 7.609517862609012 9.916916753640434 0.0
    vertex 8.83883476483185 8.838834764831837 0.0
  endloop
endfacet
facet normal 0.0 0.0 -1.0
  outer loop
    vertex 8.838834764831844 -8.838834764831844 0.0
    vertex 8.83883476483185 8.838834764831837 0.0
    vertex 9.916916753640438 -7.60951786260901 0.0
  endloop
endfacet
facet normal 0.0 0.0 -1.0
  outer loop
    vertex 9.916916753640438 -7.60951786260901 0.0
    vertex 8.83883476483185 8.838834764831837 0.0
    vertex 9.916916753640441 7.609517862609003 0.0
  endloop
endfacet
facet normal 0.0 0.0 -1.0
  outer loop
    vertex 9.916916753640438 -7.60951786260901 0.0
    vertex 9.916916753640441 7.609517862609003 0.0
    vertex 10.825317547305481 -6.250000000000004 0.0
  endloop
endfacet
facet normal 0.0 0.0 -1.0
  outer loop
    vertex 10.825317547305481 -6.250000000000004 0.0
    vertex 9.916916753640441 7.609517862609003 0.0
    vertex 10.825317547305486 6.249999999999997 0.0
  endloop
endfacet
facet normal 0.0 0.0 -1.0
  outer loop
    vertex 10.825317547305481 -6.250000000000004 0.0
    vertex 10.825317547305486 6.249999999999997 0.0
    vertex 11.548494156391087 -4.783542904563624 0.0
  endloop
endfacet
facet normal 0.0 0.0 -1.0
  outer loop
    vertex 11.548494156391087 -4.783542904563624 0.0
    vertex 10.825317547305486 6.249999999999997 0.0
    vertex 11.548494156391087 4.783542904563617 0.0
  endloop
endfacet
facet normal 0.0 0.0 -1.0
  outer loop
    vertex 11.548494156391087 -4.783542904563624 0.0
    vertex 11.548494156391087 4.783542904563617 0.0
    vertex 12.074072828613355 3.2352380637815035 0.0
  endloop
endfacet
facet normal 0.0 0.0 -1.0
  outer loop
    vertex 11.548494156391087 -4.783542904563624 0.0
    vertex 12.074072828613355 3.2352380637815035 0.0
    vertex 12.074072828613355 -3.235238063781512 0.0
  endloop
endfacet
facet normal 0.0 0.0 -1.0
  outer loop
    vertex 12.074072828613355 -3.235238063781512 0.0
    vertex 12.074072828613355 3.2352380637815035 0.0
    vertex 12.393060767172628 1.6315774027506424 0.0
  endloop
endfacet
facet normal 0.0 0.0 -1.0
  outer loop
    vertex 12.074072828613355 -3.235238063781512 0.0
    vertex 12.393060767172628 1.6315774027506424 0.0
    vertex 12.393060767172628 -1.6315774027506493 0.0
  endloop
endfacet
facet normal 0.0 0.0 -1.0
  outer loop
    vertex 12.393060767172628 -1.6315774027506493 0.0
    vertex 12.393060767172628 1.6315774027506424 0.0
    vertex 12.5 -1.4099832412739487e-15 0.0
  endloop
endfacet
facet normal 0.0 0.0 1.0
  outer loop
    vertex -12.0 32.40168480577714 18.0
    vertex -15.0 37.401684805777144 18.0
    vertex -15.0 32.40168480577714 18.0
  endloop
endfacet
facet normal 0.0 0.0 1.0
  outer loop
    vertex -15.0 37.401684805777144 18.0
    vertex -12.0 32.40168480577714 18.0
    vertex -12.0 37.401684805777144 18.0
  endloop
endfacet
facet normal 1.0 0.0 0.0
  outer loop
    vertex -12.0 37.401684805777144 3.0
    vertex -12.0 32.40168480577714 18.0
    vertex -12.0 32.40168480577714 3.0
  endloop
endfacet
facet normal 1.0 0.0 0.0
  outer loop
    vertex -12.0 32.40168480577714 18.0
    vertex -12.0 37.401684805777144 3.0
    vertex -12.0 37.401684805777144 18.0
  endloop
endfacet
facet normal 0.3214394653031625 0.9469301294951054 0.0
  outer loop
    vertex 3.2352380637815177 12.07407282861335 3.0
    vertex 4.783542904563627 11.54849415639108 0.0
    vertex 3.2352380637815177 12.07407282861335 0.0
  endloop
endfacet
facet normal 0.3214394653031625 0.9469301294951054 0.0
  outer loop
    vertex 4.783542904563627 11.54849415639108 0.0
    vertex 3.2352380637815177 12.07407282861335 3.0
    vertex 4.783542904563627 11.54849415639108 3.0
  endloop
endfacet
facet normal 1.0 6.168676680573528e-17 0.0
  outer loop
    vertex 1.4999999999999973 32.40168480577714 0.0
    vertex 1.5 12.401684805777142 3.0
    vertex 1.5 12.401684805777142 0.0
  endloop
endfacet
facet normal 1.0 6.168676680573528e-17 0.0
  outer loop
    vertex 1.5 12.401684805777142 3.0
    vertex 1.4999999999999973 32.40168480577714 0.0
    vertex 1.4999999999999973 32.40168480577714 3.0
  endloop
endfacet
facet normal 0.1950903220161287 0.9807852804032304 0.0
  outer loop
    vertex 1.6315774027506564 12.393060767172628 3.0
    vertex 3.2352380637815177 12.07407282861335 0.0
    vertex 1.6315774027506564 12.393060767172628 0.0
  endloop
endfacet
facet normal 0.1950903220161287 0.9807852804032304 0.0
  outer loop
    vertex 3.2352380637815177 12.07407282861335 0.0
    vertex 1.6315774027506564 12.393060767172628 3.0
    vertex 3.2352380637815177 12.07407282861335 3.0
  endloop
endfacet
facet normal 0.44228869021900113 0.8968727415326885 0.0
  outer loop
    vertex 4.783542904563627 11.54849415639108 3.0
    vertex 6.250000000000005 10.825317547305481 0.0
    vertex 4.783542904563627 11.54849415639108 0.0
  endloop
endfacet
facet normal 0.44228869021900113 0.8968727415326885 0.0
  outer loop
    vertex 6.250000000000005 10.825317547305481 0.0
    vertex 4.783542904563627 11.54849415639108 3.0
    vertex 6.250000000000005 10.825317547305481 3.0
  endloop
endfacet
facet normal 0.5555702330196036 0.8314696123025443 0.0
  outer loop
    vertex 6.250000000000005 10.825317547305481 3.0
    vertex 7.609517862609012 9.916916753640434 0.0
    vertex 6.250000000000005 10.825317547305481 0.0
  endloop
endfacet
facet normal 0.5555702330196036 0.8314696123025443 0.0
  outer loop
    vertex 7.609517862609012 9.916916753640434 0.0
    vertex 6.250000000000005 10.825317547305481 3.0
    vertex 7.609517862609012 9.916916753640434 3.0
  endloop
endfacet
facet normal 0.6593458151000686 0.7518398074789776 0.0
  outer loop
    vertex 7.609517862609012 9.916916753640434 3.0
    vertex 8.83883476483185 8.838834764831837 0.0
    vertex 7.609517862609012 9.916916753640434 0.0
  endloop
endfacet
facet normal 0.6593458151000686 0.7518398074789776 0.0
  outer loop
    vertex 8.83883476483185 8.838834764831837 0.0
    vertex 7.609517862609012 9.916916753640434 3.0
    vertex 8.83883476483185 8.838834764831837 3.0
  endloop
endfacet
facet normal -0.0 -1.0 -0.0
  outer loop
    vertex 15.0 32.40168480577714 0.0
    vertex 12.0 32.40168480577714 3.0
    vertex 1.4999999999999973 32.40168480577714 0.0
  endloop
endfacet
facet normal -0.0 -1.0 -0.0
  outer loop
    vertex 12.0 32.40168480577714 3.0
    vertex 15.0 32.40168480577714 0.0
    vertex 15.0 32.40168480577714 18.0
  endloop
endfacet
facet normal -0.0 -1.0 -0.0
  outer loop
    vertex 12.0 32.40168480577714 3.0
    vertex 15.0 32.40168480577714 18.0
    vertex 12.0 32.40168480577714 18.0
  endloop
endfacet
facet normal -0.0 -1.0 -0.0
  outer loop
    vertex 1.4999999999999973 32.40168480577714 3.0
    vertex 1.4999999999999973 32.40168480577714 0.0
    vertex 12.0 32.40168480577714 3.0
  endloop
endfacet
facet normal 0.0 1.0 0.0
  outer loop
    vertex -15.0 37.401684805777144 0.0
    vertex -12.0 37.401684805777144 3.0
    vertex 15.0 37.401684805777144 0.0
  endloop
endfacet
facet normal 0.0 1.0 0.0
  outer loop
    vertex -12.0 37.401684805777144 3.0
    vertex -15.0 37.401684805777144 0.0
    vertex -15.0 37.401684805777144 18.0
  endloop
endfacet
facet normal 0.0 1.0 0.0
  outer loop
    vertex -12.0 37.401684805777144 3.0
    vertex -15.0 37.401684805777144 18.0
    vertex -12.0 37.401684805777144 18.0
  endloop
endfacet
facet normal 0.0 1.0 0.0
  outer loop
    vertex 15.0 37.401684805777144 0.0
    vertex 12.0 37.401684805777144 3.0
    vertex 15.0 37.401684805777144 18.0
  endloop
endfacet
facet normal 0.0 1.0 0.0
  outer loop
    vertex 12.0 37.401684805777144 3.0
    vertex 15.0 37.401684805777144 0.0
    vertex -12.0 37.401684805777144 3.0
  endloop
endfacet
facet normal 0.0 1.0 0.0
  outer loop
    vertex 15.0 37.401684805777144 18.0
    vertex 12.0 37.401684805777144 3.0
    vertex 12.0 37.401684805777144 18.0
  endloop
endfacet
facet normal 1.0 0.0 0.0
  outer loop
    vertex 15.0 37.401684805777144 0.0
    vertex 15.0 32.40168480577714 18.0
    vertex 15.0 32.40168480577714 0.0
  endloop
endfacet
facet normal 1.0 0.0 0.0
  outer loop
    vertex 15.0 32.40168480577714 18.0
    vertex 15.0 37.401684805777144 0.0
    vertex 15.0 37.401684805777144 18.0
  endloop
endfacet
facet normal -1.0 0.0 0.0
  outer loop
    vertex -15.0 37.401684805777144 18.0
    vertex -15.0 32.40168480577714 0.0
    vertex -15.0 32.40168480577714 18.0
  endloop
endfacet
facet normal -1.0 0.0 0.0
  outer loop
    vertex -15.0 32.40168480577714 0.0
    vertex -15.0 37.401684805777144 18.0
    vertex -15.0 37.401684805777144 0.0
  endloop
endfacet
facet normal 0.06540312923014911 0.9978589232386031 0.0
  outer loop
    vertex 1.5 12.401684805777142 3.0
    vertex 1.6315774027506564 12.393060767172628 0.0
    vertex 1.5 12.401684805777142 0.0
  endloop
endfacet
facet normal 0.06540312923014911 0.9978589232386031 0.0
  outer loop
    vertex 1.6315774027506564 12.393060767172628 0.0
    vertex 1.5 12.401684805777142 3.0
    vertex 1.6315774027506564 12.393060767172628 3.0
  endloop
endfacet
facet normal 0.8968727415326887 0.44228869021900064 0.0
  outer loop
    vertex 10.825317547305486 6.249999999999997 0.0
    vertex 11.548494156391087 4.783542904563617 3.0
    vertex 11.548494156391087 4.783542904563617 0.0
  endloop
endfacet
facet normal 0.8968727415326887 0.44228869021900064 0.0
  outer loop
    vertex 11.548494156391087 4.783542904563617 3.0
    vertex 10.825317547305486 6.249999999999997 0.0
    vertex 10.825317547305486 6.249999999999997 3.0
  endloop
endfacet
facet normal 0.9807852804032307 0.19509032201612792 0.0
  outer loop
    vertex 12.074072828613355 3.2352380637815035 0.0
    vertex 12.393060767172628 1.6315774027506424 3.0
    vertex 12.393060767172628 1.6315774027506424 0.0
  endloop
endfacet
facet normal 0.9807852804032307 0.19509032201612792 0.0
  outer loop
    vertex 12.393060767172628 1.6315774027506424 3.0
    vertex 12.074072828613355 3.2352380637815035 0.0
    vertex 12.074072828613355 3.2352380637815035 3.0
  endloop
endfacet
facet normal 0.8314696123025451 0.5555702330196024 0.0
  outer loop
    vertex 9.916916753640441 7.609517862609003 0.0
    vertex 10.825317547305486 6.249999999999997 3.0
    vertex 10.825317547305486 6.249999999999997 0.0
  endloop
endfacet
facet normal 0.8314696123025451 0.5555702330196024 0.0
  outer loop
    vertex 10.825317547305486 6.249999999999997 3.0
    vertex 9.916916753640441 7.609517862609003 0.0
    vertex 9.916916753640441 7.609517862609003 3.0
  endloop
endfacet
facet normal 0.7518398074789782 0.659345815100068 0.0
  outer loop
    vertex 8.83883476483185 8.838834764831837 0.0
    vertex 9.916916753640441 7.609517862609003 3.0
    vertex 9.916916753640441 7.609517862609003 0.0
  endloop
endfacet
facet normal 0.7518398074789782 0.659345815100068 0.0
  outer loop
    vertex 9.916916753640441 7.609517862609003 3.0
    vertex 8.83883476483185 8.838834764831837 0.0
    vertex 8.83883476483185 8.838834764831837 3.0
  endloop
endfacet
facet normal 0.9469301294951058 0.3214394653031616 0.0
  outer loop
    vertex 11.548494156391087 4.783542904563617 0.0
    vertex 12.074072828613355 3.2352380637815035 3.0
    vertex 12.074072828613355 3.2352380637815035 0.0
  endloop
endfacet
facet normal 0.9469301294951058 0.3214394653031616 0.0
  outer loop
    vertex 12.074072828613355 3.2352380637815035 3.0
    vertex 11.548494156391087 4.783542904563617 0.0
    vertex 11.548494156391087 4.783542904563617 3.0
  endloop
endfacet
facet normal 0.19509032201612833 -0.9807852804032304 0.0
  outer loop
    vertex 3.2352380637815066 -12.074072828613355 3.0
    vertex 1.6315774027506424 -12.393060767172631 0.0
    vertex 3.2352380637815066 -12.074072828613355 0.0
  endloop
endfacet
facet normal 0.19509032201612833 -0.9807852804032304 0.0
  outer loop
    vertex 1.6315774027506424 -12.393060767172631 0.0
    vertex 3.2352380637815066 -12.074072828613355 3.0
    vertex 1.6315774027506424 -12.393060767172631 3.0
  endloop
endfacet
facet normal 0.9978589232386036 0.06540312923014237 0.0
  outer loop
    vertex 12.393060767172628 1.6315774027506424 0.0
    vertex 12.5 -1.4099832412739487e-15 3.0
    vertex 12.5 -1.4099832412739487e-15 0.0
  endloop
endfacet
facet normal 0.9978589232386036 0.06540312923014237 0.0
  outer loop
    vertex 12.5 -1.4099832412739487e-15 3.0
    vertex 12.393060767172628 1.6315774027506424 0.0
    vertex 12.393060767172628 1.6315774027506424 3.0
  endloop
endfacet
facet normal 0.6593458151000682 -0.7518398074789779 0.0
  outer loop
    vertex 8.838834764831844 -8.838834764831844 3.0
    vertex 7.609517862609003 -9.916916753640441 0.0
    vertex 8.838834764831844 -8.838834764831844 0.0
  endloop
endfacet
facet normal 0.6593458151000682 -0.7518398074789779 0.0
  outer loop
    vertex 7.609517862609003 -9.916916753640441 0.0
    vertex 8.838834764831844 -8.838834764831844 3.0
    vertex 7.609517862609003 -9.916916753640441 3.0
  endloop
endfacet
facet normal 0.555570233019602 -0.8314696123025453 0.0
  outer loop
    vertex 7.609517862609003 -9.916916753640441 3.0
    vertex 6.249999999999997 -10.825317547305485 0.0
    vertex 7.609517862609003 -9.916916753640441 0.0
  endloop
endfacet
facet normal 0.555570233019602 -0.8314696123025453 0.0
  outer loop
    vertex 6.249999999999997 -10.825317547305485 0.0
    vertex 7.609517862609003 -9.916916753640441 3.0
    vertex 6.249999999999997 -10.825317547305485 3.0
  endloop
endfacet
facet normal 0.4422886902190013 -0.8968727415326883 0.0
  outer loop
    vertex 6.249999999999997 -10.825317547305485 3.0
    vertex 4.783542904563619 -11.548494156391087 0.0
    vertex 6.249999999999997 -10.825317547305485 0.0
  endloop
endfacet
facet normal 0.4422886902190013 -0.8968727415326883 0.0
  outer loop
    vertex 4.783542904563619 -11.548494156391087 0.0
    vertex 6.249999999999997 -10.825317547305485 3.0
    vertex 4.783542904563619 -11.548494156391087 3.0
  endloop
endfacet
facet normal -0.06540312923014313 -0.9978589232386036 -0.0
  outer loop
    vertex 0.0 -12.5 3.0
    vertex -1.6315774027506451 -12.39306076717263 0.0
    vertex 0.0 -12.5 0.0
  endloop
endfacet
facet normal -0.06540312923014313 -0.9978589232386036 -0.0
  outer loop
    vertex -1.6315774027506451 -12.39306076717263 0.0
    vertex 0.0 -12.5 3.0
    vertex -1.6315774027506451 -12.39306076717263 3.0
  endloop
endfacet
facet normal 0.8968727415326883 -0.44228869021900147 0.0
  outer loop
    vertex 11.548494156391087 -4.783542904563624 0.0
    vertex 10.825317547305481 -6.250000000000004 3.0
    vertex 10.825317547305481 -6.250000000000004 0.0
  endloop
endfacet
facet normal 0.8968727415326883 -0.44228869021900147 0.0
  outer loop
    vertex 10.825317547305481 -6.250000000000004 3.0
    vertex 11.548494156391087 -4.783542904563624 0.0
    vertex 11.548494156391087 -4.783542904563624 3.0
  endloop
endfacet
facet normal 0.06540312923014238 -0.9978589232386036 0.0
  outer loop
    vertex 1.6315774027506424 -12.393060767172631 3.0
    vertex 0.0 -12.5 0.0
    vertex 1.6315774027506424 -12.393060767172631 0.0
  endloop
endfacet
facet normal 0.06540312923014238 -0.9978589232386036 0.0
  outer loop
    vertex 0.0 -12.5 0.0
    vertex 1.6315774027506424 -12.393060767172631 3.0
    vertex 0.0 -12.5 3.0
  endloop
endfacet
facet normal -0.19509032201612833 -0.9807852804032304 -0.0
  outer loop
    vertex -1.6315774027506451 -12.39306076717263 3.0
    vertex -3.235238063781512 -12.074072828613353 0.0
    vertex -1.6315774027506451 -12.39306076717263 0.0
  endloop
endfacet
facet normal -0.19509032201612833 -0.9807852804032304 -0.0
  outer loop
    vertex -3.235238063781512 -12.074072828613353 0.0
    vertex -1.6315774027506451 -12.39306076717263 3.0
    vertex -3.235238063781512 -12.074072828613353 3.0
  endloop
endfacet
facet normal -0.3214394653031616 -0.9469301294951058 -0.0
  outer loop
    vertex -3.235238063781512 -12.074072828613353 3.0
    vertex -4.783542904563622 -11.548494156391085 0.0
    vertex -3.235238063781512 -12.074072828613353 0.0
  endloop
endfacet
facet normal -0.3214394653031616 -0.9469301294951058 -0.0
  outer loop
    vertex -4.783542904563622 -11.548494156391085 0.0
    vertex -3.235238063781512 -12.074072828613353 3.0
    vertex -4.783542904563622 -11.548494156391085 3.0
  endloop
endfacet
facet normal 0.3214394653031616 -0.9469301294951058 0.0
  outer loop
    vertex 4.783542904563619 -11.548494156391087 3.0
    vertex 3.2352380637815066 -12.074072828613355 0.0
    vertex 4.783542904563619 -11.548494156391087 0.0
  endloop
endfacet
facet normal 0.3214394653031616 -0.9469301294951058 0.0
  outer loop
    vertex 3.2352380637815066 -12.074072828613355 0.0
    vertex 4.783542904563619 -11.548494156391087 3.0
    vertex 3.2352380637815066 -12.074072828613355 3.0
  endloop
endfacet
facet normal 0.9807852804032304 -0.1950903220161287 0.0
  outer loop
    vertex 12.393060767172628 -1.6315774027506493 0.0
    vertex 12.074072828613355 -3.235238063781512 3.0
    vertex 12.074072828613355 -3.235238063781512 0.0
  endloop
endfacet
facet normal 0.9807852804032304 -0.1950903220161287 0.0
  outer loop
    vertex 12.074072828613355 -3.235238063781512 3.0
    vertex 12.393060767172628 -1.6315774027506493 0.0
    vertex 12.393060767172628 -1.6315774027506493 3.0
  endloop
endfacet
facet normal 0.9469301294951058 -0.3214394653031616 0.0
  outer loop
    vertex 12.074072828613355 -3.235238063781512 0.0
    vertex 11.548494156391087 -4.783542904563624 3.0
    vertex 11.548494156391087 -4.783542904563624 0.0
  endloop
endfacet
facet normal 0.9469301294951058 -0.3214394653031616 0.0
  outer loop
    vertex 11.548494156391087 -4.783542904563624 3.0
    vertex 12.074072828613355 -3.235238063781512 0.0
    vertex 12.074072828613355 -3.235238063781512 3.0
  endloop
endfacet
facet normal 0.831469612302545 -0.5555702330196026 0.0
  outer loop
    vertex 10.825317547305481 -6.250000000000004 0.0
    vertex 9.916916753640438 -7.60951786260901 3.0
    vertex 9.916916753640438 -7.60951786260901 0.0
  endloop
endfacet
facet normal 0.831469612302545 -0.5555702330196026 0.0
  outer loop
    vertex 9.916916753640438 -7.60951786260901 3.0
    vertex 10.825317547305481 -6.250000000000004 0.0
    vertex 10.825317547305481 -6.250000000000004 3.0
  endloop
endfacet
facet normal 0.9978589232386036 -0.06540312923014302 0.0
  outer loop
    vertex 12.5 -1.4099832412739487e-15 0.0
    vertex 12.393060767172628 -1.6315774027506493 3.0
    vertex 12.393060767172628 -1.6315774027506493 0.0
  endloop
endfacet
facet normal 0.9978589232386036 -0.06540312923014302 0.0
  outer loop
    vertex 12.393060767172628 -1.6315774027506493 3.0
    vertex 12.5 -1.4099832412739487e-15 0.0
    vertex 12.5 -1.4099832412739487e-15 3.0
  endloop
endfacet
facet normal 0.7518398074789775 -0.659345815100069 0.0
  outer loop
    vertex 9.916916753640438 -7.60951786260901 0.0
    vertex 8.838834764831844 -8.838834764831844 3.0
    vertex 8.838834764831844 -8.838834764831844 0.0
  endloop
endfacet
facet normal 0.7518398074789775 -0.659345815100069 0.0
  outer loop
    vertex 8.838834764831844 -8.838834764831844 3.0
    vertex 9.916916753640438 -7.60951786260901 0.0
    vertex 9.916916753640438 -7.60951786260901 3.0
  endloop
endfacet
facet normal -0.4422886902190013 -0.8968727415326883 -0.0
  outer loop
    vertex -4.783542904563622 -11.548494156391085 3.0
    vertex -6.250000000000001 -10.825317547305483 0.0
    vertex -4.783542904563622 -11.548494156391085 0.0
  endloop
endfacet
facet normal -0.4422886902190013 -0.8968727415326883 -0.0
  outer loop
    vertex -6.250000000000001 -10.825317547305483 0.0
    vertex -4.783542904563622 -11.548494156391085 3.0
    vertex -6.250000000000001 -10.825317547305483 3.0
  endloop
endfacet
facet normal -0.9469301294951054 0.3214394653031625 0.0
  outer loop
    vertex -11.548494156391081 4.78354290456363 3.0
    vertex -12.074072828613351 3.2352380637815203 0.0
    vertex -12.074072828613351 3.2352380637815203 3.0
  endloop
endfacet
facet normal -0.9469301294951054 0.3214394653031625 0.0
  outer loop
    vertex -12.074072828613351 3.2352380637815203 0.0
    vertex -11.548494156391081 4.78354290456363 3.0
    vertex -11.548494156391081 4.78354290456363 0.0
  endloop
endfacet
facet normal -0.9978589232386035 -0.06540312923014316 -0.0
  outer loop
    vertex -12.5 0.0 3.0
    vertex -12.39306076717263 -1.6315774027506451 0.0
    vertex -12.39306076717263 -1.6315774027506451 3.0
  endloop
endfacet
facet normal -0.9978589232386035 -0.06540312923014316 -0.0
  outer loop
    vertex -12.39306076717263 -1.6315774027506451 0.0
    vertex -12.5 0.0 3.0
    vertex -12.5 0.0 0.0
  endloop
endfacet
facet normal -0.5555702330196026 -0.831469612302545 -0.0
  outer loop
    vertex -6.250000000000001 -10.825317547305483 3.0
    vertex -7.609517862609008 -9.91691675364044 0.0
    vertex -6.250000000000001 -10.825317547305483 0.0
  endloop
endfacet
facet normal -0.5555702330196026 -0.831469612302545 -0.0
  outer loop
    vertex -7.609517862609008 -9.91691675364044 0.0
    vertex -6.250000000000001 -10.825317547305483 3.0
    vertex -7.609517862609008 -9.91691675364044 3.0
  endloop
endfacet
facet normal -0.9807852804032307 -0.19509032201612767 -0.0
  outer loop
    vertex -12.39306076717263 -1.6315774027506451 3.0
    vertex -12.074072828613355 -3.2352380637815092 0.0
    vertex -12.074072828613355 -3.2352380637815092 3.0
  endloop
endfacet
facet normal -0.9807852804032307 -0.19509032201612767 -0.0
  outer loop
    vertex -12.074072828613355 -3.2352380637815092 0.0
    vertex -12.39306076717263 -1.6315774027506451 3.0
    vertex -12.39306076717263 -1.6315774027506451 0.0
  endloop
endfacet
facet normal -0.8314696123025451 -0.5555702330196024 -0.0
  outer loop
    vertex -10.825317547305485 -6.249999999999999 3.0
    vertex -9.916916753640441 -7.609517862609007 0.0
    vertex -9.916916753640441 -7.609517862609007 3.0
  endloop
endfacet
facet normal -0.8314696123025451 -0.5555702330196024 -0.0
  outer loop
    vertex -9.916916753640441 -7.609517862609007 0.0
    vertex -10.825317547305485 -6.249999999999999 3.0
    vertex -10.825317547305485 -6.249999999999999 0.0
  endloop
endfacet
facet normal -0.9978589232386035 0.06540312923014352 0.0
  outer loop
    vertex -12.393060767172628 1.6315774027506564 3.0
    vertex -12.5 0.0 0.0
    vertex -12.5 0.0 3.0
  endloop
endfacet
facet normal -0.9978589232386035 0.06540312923014352 0.0
  outer loop
    vertex -12.5 0.0 0.0
    vertex -12.393060767172628 1.6315774027506564 3.0
    vertex -12.393060767172628 1.6315774027506564 0.0
  endloop
endfacet
facet normal -0.6593458151000681 -0.751839807478978 -0.0
  outer loop
    vertex -7.609517862609008 -9.91691675364044 3.0
    vertex -8.838834764831844 -8.838834764831844 0.0
    vertex -7.609517862609008 -9.91691675364044 0.0
  endloop
endfacet
facet normal -0.6593458151000681 -0.751839807478978 -0.0
  outer loop
    vertex -8.838834764831844 -8.838834764831844 0.0
    vertex -7.609517862609008 -9.91691675364044 3.0
    vertex -8.838834764831844 -8.838834764831844 3.0
  endloop
endfacet
facet normal -0.896872741532688 0.442288690219002 0.0
  outer loop
    vertex -10.82531754730548 6.250000000000005 3.0
    vertex -11.548494156391081 4.78354290456363 0.0
    vertex -11.548494156391081 4.78354290456363 3.0
  endloop
endfacet
facet normal -0.896872741532688 0.442288690219002 0.0
  outer loop
    vertex -11.548494156391081 4.78354290456363 0.0
    vertex -10.82531754730548 6.250000000000005 3.0
    vertex -10.82531754730548 6.250000000000005 0.0
  endloop
endfacet
facet normal -0.7518398074789782 -0.6593458151000682 -0.0
  outer loop
    vertex -9.916916753640441 -7.609517862609007 3.0
    vertex -8.838834764831844 -8.838834764831844 0.0
    vertex -8.838834764831844 -8.838834764831844 3.0
  endloop
endfacet
facet normal -0.7518398074789782 -0.6593458151000682 -0.0
  outer loop
    vertex -8.838834764831844 -8.838834764831844 0.0
    vertex -9.916916753640441 -7.609517862609007 3.0
    vertex -9.916916753640441 -7.609517862609007 0.0
  endloop
endfacet
facet normal -0.831469612302545 0.5555702330196026 0.0
  outer loop
    vertex -9.916916753640436 7.609517862609012 3.0
    vertex -10.82531754730548 6.250000000000005 0.0
    vertex -10.82531754730548 6.250000000000005 3.0
  endloop
endfacet
facet normal -0.831469612302545 0.5555702330196026 0.0
  outer loop
    vertex -10.82531754730548 6.250000000000005 0.0
    vertex -9.916916753640436 7.609517862609012 3.0
    vertex -9.916916753640436 7.609517862609012 0.0
  endloop
endfacet
facet normal -0.9807852804032304 0.19509032201612872 0.0
  outer loop
    vertex -12.074072828613351 3.2352380637815203 3.0
    vertex -12.393060767172628 1.6315774027506564 0.0
    vertex -12.393060767172628 1.6315774027506564 3.0
  endloop
endfacet
facet normal -0.9807852804032304 0.19509032201612872 0.0
  outer loop
    vertex -12.393060767172628 1.6315774027506564 0.0
    vertex -12.074072828613351 3.2352380637815203 3.0
    vertex -12.074072828613351 3.2352380637815203 0.0
  endloop
endfacet
facet normal -0.8968727415326885 -0.4422886902190009 -0.0
  outer loop
    vertex -11.548494156391085 -4.783542904563622 3.0
    vertex -10.825317547305485 -6.249999999999999 0.0
    vertex -10.825317547305485 -6.249999999999999 3.0
  endloop
endfacet
facet normal -0.8968727415326885 -0.4422886902190009 -0.0
  outer loop
    vertex -10.825317547305485 -6.249999999999999 0.0
    vertex -11.548494156391085 -4.783542904563622 3.0
    vertex -11.548494156391085 -4.783542904563622 0.0
  endloop
endfacet
facet normal -0.9469301294951057 -0.321439465303162 -0.0
  outer loop
    vertex -12.074072828613355 -3.2352380637815092 3.0
    vertex -11.548494156391085 -4.783542904563622 0.0
    vertex -11.548494156391085 -4.783542904563622 3.0
  endloop
endfacet
facet normal -0.9469301294951057 -0.321439465303162 -0.0
  outer loop
    vertex -11.548494156391085 -4.783542904563622 0.0
    vertex -12.074072828613355 -3.2352380637815092 3.0
    vertex -12.074072828613355 -3.2352380637815092 0.0
  endloop
endfacet
endsolid modele-poigne-rond
